<svg width="512" height="100" viewBox="0 0 512 100" fill="none" xmlns="http://www.w3.org/2000/svg">
<rect width="512" height="100" fill="white"/>
<path d="M148.992 51V48.888C150.048 48.824 150.8 48.6 151.248 48.216C151.728 47.832 152.032 47.256 152.16 46.488C152.288 45.72 152.352 44.744 152.352 43.56V23.592C152.352 22.888 152.368 22.216 152.4 21.576C152.432 20.904 152.464 20.328 152.496 19.848C151.952 19.88 151.36 19.912 150.72 19.944C150.08 19.976 149.504 20.008 148.992 20.04V17.4H160.8V19.512C159.776 19.544 159.024 19.768 158.544 20.184C158.064 20.568 157.76 21.144 157.632 21.912C157.504 22.648 157.44 23.624 157.44 24.84V32.664H173.328V23.592C173.328 22.888 173.344 22.216 173.376 21.576C173.408 20.904 173.44 20.328 173.472 19.848C172.928 19.88 172.336 19.912 171.696 19.944C171.056 19.976 170.48 20.008 169.968 20.04V17.4H181.776V19.512C180.752 19.544 180 19.768 179.52 20.184C179.04 20.568 178.736 21.144 178.608 21.912C178.48 22.648 178.416 23.624 178.416 24.84V44.568C178.416 45.432 178.4 46.216 178.368 46.92C178.368 47.592 178.336 48.136 178.272 48.552C178.816 48.488 179.408 48.456 180.048 48.456C180.688 48.424 181.264 48.392 181.776 48.36V51H169.968V48.888C171.024 48.824 171.776 48.6 172.224 48.216C172.704 47.832 173.008 47.256 173.136 46.488C173.264 45.72 173.328 44.744 173.328 43.56V35.16L157.44 35.304V44.568C157.44 45.432 157.424 46.216 157.392 46.92C157.392 47.592 157.36 48.136 157.296 48.552C157.84 48.488 158.432 48.456 159.072 48.456C159.744 48.424 160.32 48.392 160.8 48.36V51H148.992ZM196.782 51.768C194.542 51.768 192.526 51.256 190.734 50.232C188.974 49.176 187.582 47.704 186.558 45.816C185.534 43.896 185.022 41.64 185.022 39.048C185.022 36.808 185.518 34.712 186.51 32.76C187.534 30.808 188.958 29.24 190.782 28.056C192.606 26.84 194.718 26.232 197.118 26.232C198.462 26.232 199.726 26.44 200.91 26.856C202.126 27.272 203.198 27.928 204.126 28.824C205.086 29.688 205.838 30.824 206.382 32.232C206.926 33.608 207.198 35.288 207.198 37.272L190.686 37.56C190.686 39.736 190.926 41.672 191.406 43.368C191.918 45.064 192.734 46.376 193.854 47.304C194.974 48.232 196.43 48.696 198.222 48.696C199.086 48.696 199.998 48.552 200.958 48.264C201.95 47.944 202.878 47.496 203.742 46.92C204.638 46.344 205.39 45.656 205.998 44.856L207.486 46.152C206.526 47.592 205.422 48.728 204.174 49.56C202.926 50.36 201.646 50.92 200.334 51.24C199.054 51.592 197.87 51.768 196.782 51.768ZM190.878 35.064H201.966C201.966 33.848 201.79 32.76 201.438 31.8C201.118 30.808 200.606 30.024 199.902 29.448C199.198 28.872 198.302 28.584 197.214 28.584C195.518 28.584 194.126 29.128 193.038 30.216C191.95 31.272 191.23 32.888 190.878 35.064ZM211.231 48.984C212.191 48.984 212.863 48.76 213.247 48.312C213.631 47.864 213.855 47.24 213.919 46.44C214.015 45.64 214.063 44.712 214.063 43.656V33.672C214.063 33.16 214.063 32.616 214.063 32.04C214.095 31.432 214.159 30.84 214.255 30.264C213.711 30.296 213.135 30.328 212.527 30.36C211.919 30.36 211.359 30.376 210.847 30.408V27.864H212.479C213.823 27.864 214.847 27.72 215.551 27.432C216.255 27.144 216.767 26.84 217.087 26.52H218.815C218.879 26.968 218.927 27.592 218.959 28.392C218.991 29.192 219.023 30.088 219.055 31.08C219.663 30.184 220.367 29.384 221.167 28.68C221.967 27.944 222.831 27.352 223.759 26.904C224.719 26.456 225.711 26.232 226.735 26.232C227.727 26.232 228.575 26.504 229.279 27.048C230.015 27.56 230.383 28.408 230.383 29.592C230.383 29.912 230.287 30.28 230.095 30.696C229.935 31.112 229.647 31.48 229.231 31.8C228.847 32.088 228.319 32.232 227.647 32.232C226.975 32.2 226.383 31.944 225.871 31.464C225.391 30.984 225.167 30.328 225.199 29.496C224.431 29.496 223.663 29.736 222.895 30.216C222.127 30.664 221.407 31.272 220.735 32.04C220.095 32.808 219.551 33.64 219.103 34.536V45.048C219.103 45.624 219.087 46.216 219.055 46.824C219.055 47.4 219.007 47.992 218.911 48.6C219.423 48.568 219.951 48.552 220.495 48.552C221.039 48.52 221.535 48.488 221.983 48.456V51H211.231V48.984ZM232.794 48.984C233.754 48.984 234.426 48.76 234.81 48.312C235.194 47.864 235.418 47.24 235.482 46.44C235.578 45.64 235.626 44.712 235.626 43.656V33.72C235.626 33.176 235.642 32.632 235.674 32.088C235.706 31.512 235.754 30.904 235.818 30.264C235.274 30.296 234.698 30.328 234.09 30.36C233.482 30.36 232.922 30.376 232.41 30.408V27.864C233.85 27.864 234.986 27.8 235.818 27.672C236.682 27.512 237.338 27.336 237.786 27.144C238.266 26.952 238.618 26.744 238.842 26.52H240.666V45.048C240.666 45.624 240.65 46.216 240.618 46.824C240.586 47.4 240.538 47.992 240.474 48.6C240.986 48.568 241.498 48.552 242.01 48.552C242.554 48.52 243.05 48.488 243.498 48.456V51H232.794V48.984ZM237.93 22.104C237.098 22.104 236.394 21.8 235.818 21.192C235.242 20.552 234.954 19.784 234.954 18.888C234.954 17.992 235.258 17.24 235.866 16.632C236.474 15.992 237.162 15.672 237.93 15.672C238.762 15.672 239.45 15.992 239.994 16.632C240.57 17.24 240.858 17.992 240.858 18.888C240.858 19.784 240.57 20.552 239.994 21.192C239.45 21.8 238.762 22.104 237.93 22.104ZM256.587 51.768C255.787 51.768 254.987 51.656 254.187 51.432C253.387 51.24 252.635 50.84 251.931 50.232C251.259 49.592 250.731 48.68 250.347 47.496C249.963 46.312 249.771 44.744 249.771 42.792L249.867 29.688H246.315V27C247.179 26.968 248.059 26.648 248.955 26.04C249.851 25.432 250.635 24.616 251.307 23.592C251.979 22.568 252.443 21.464 252.699 20.28H254.955V27H262.347V29.496L254.955 29.592L254.859 42.408C254.859 43.624 254.955 44.696 255.147 45.624C255.371 46.52 255.723 47.224 256.203 47.736C256.715 48.216 257.403 48.456 258.267 48.456C259.003 48.456 259.755 48.232 260.523 47.784C261.323 47.336 262.075 46.6 262.779 45.576L264.411 47.016C263.643 48.136 262.875 49.016 262.107 49.656C261.339 50.296 260.603 50.76 259.899 51.048C259.195 51.368 258.555 51.56 257.979 51.624C257.403 51.72 256.939 51.768 256.587 51.768ZM280.61 51C280.546 50.488 280.498 50.04 280.466 49.656C280.434 49.272 280.386 48.872 280.322 48.456C279.234 49.544 278.066 50.376 276.818 50.952C275.57 51.496 274.274 51.768 272.93 51.768C270.626 51.768 268.882 51.208 267.698 50.088C266.546 48.936 265.97 47.512 265.97 45.816C265.97 44.344 266.402 43.064 267.266 41.976C268.13 40.888 269.266 40.008 270.674 39.336C272.082 38.632 273.618 38.12 275.282 37.8C276.946 37.448 278.578 37.272 280.178 37.272V34.44C280.178 33.416 280.082 32.472 279.89 31.608C279.698 30.712 279.298 29.992 278.69 29.448C278.114 28.872 277.202 28.584 275.954 28.584C275.122 28.552 274.29 28.712 273.458 29.064C272.626 29.384 271.986 29.928 271.538 30.696C271.794 30.952 271.954 31.256 272.018 31.608C272.114 31.928 272.162 32.232 272.162 32.52C272.162 32.968 271.97 33.48 271.586 34.056C271.202 34.6 270.546 34.856 269.618 34.824C268.85 34.824 268.258 34.568 267.842 34.056C267.458 33.512 267.266 32.888 267.266 32.184C267.266 31.032 267.682 30.008 268.514 29.112C269.378 28.216 270.546 27.512 272.018 27C273.49 26.488 275.138 26.232 276.962 26.232C279.714 26.232 281.762 26.952 283.106 28.392C284.482 29.832 285.17 32.104 285.17 35.208C285.17 36.36 285.17 37.464 285.17 38.52C285.17 39.576 285.154 40.632 285.122 41.688C285.122 42.744 285.122 43.864 285.122 45.048C285.122 45.528 285.106 46.072 285.074 46.68C285.042 47.288 284.994 47.928 284.93 48.6C285.474 48.568 286.034 48.536 286.61 48.504C287.186 48.472 287.73 48.456 288.242 48.456V51H280.61ZM280.178 39.48C279.154 39.544 278.098 39.688 277.01 39.912C275.954 40.136 274.994 40.472 274.13 40.92C273.266 41.368 272.562 41.944 272.018 42.648C271.506 43.352 271.25 44.2 271.25 45.192C271.314 46.28 271.666 47.08 272.306 47.592C272.978 48.104 273.762 48.36 274.658 48.36C275.778 48.36 276.77 48.152 277.634 47.736C278.498 47.288 279.346 46.68 280.178 45.912C280.146 45.56 280.13 45.208 280.13 44.856C280.13 44.472 280.13 44.072 280.13 43.656C280.13 43.368 280.13 42.84 280.13 42.072C280.162 41.272 280.178 40.408 280.178 39.48ZM302.477 64.008C299.661 64.008 297.389 63.688 295.661 63.048C293.965 62.44 292.733 61.64 291.965 60.648C291.229 59.688 290.861 58.664 290.861 57.576C290.861 56.712 291.053 55.912 291.437 55.176C291.853 54.44 292.397 53.784 293.069 53.208C293.741 52.664 294.493 52.232 295.325 51.912C294.205 51.56 293.357 51.064 292.781 50.424C292.205 49.752 291.917 48.936 291.917 47.976C291.917 46.952 292.317 45.944 293.117 44.952C293.949 43.96 295.133 43.288 296.669 42.936C295.229 42.296 294.077 41.368 293.213 40.152C292.349 38.936 291.901 37.496 291.869 35.832C291.837 33.912 292.317 32.232 293.309 30.792C294.333 29.352 295.629 28.232 297.197 27.432C298.797 26.632 300.461 26.232 302.189 26.232C303.181 26.232 304.205 26.376 305.261 26.664C306.317 26.92 307.277 27.336 308.141 27.912C308.493 26.984 308.957 26.136 309.533 25.368C310.109 24.6 310.781 23.992 311.549 23.544C312.349 23.096 313.181 22.872 314.045 22.872C314.973 22.872 315.677 23.112 316.157 23.592C316.637 24.072 316.877 24.712 316.877 25.512C316.877 25.768 316.797 26.088 316.637 26.472C316.509 26.824 316.269 27.128 315.917 27.384C315.565 27.64 315.085 27.768 314.477 27.768C313.965 27.768 313.501 27.608 313.085 27.288C312.701 26.936 312.461 26.52 312.365 26.04C311.693 26.168 311.133 26.568 310.685 27.24C310.269 27.88 309.997 28.536 309.869 29.208C310.701 29.944 311.341 30.824 311.789 31.848C312.269 32.84 312.509 33.912 312.509 35.064C312.509 36.888 312.013 38.504 311.021 39.912C310.061 41.32 308.797 42.424 307.229 43.224C305.661 44.024 303.965 44.424 302.141 44.424C301.597 44.424 301.085 44.392 300.605 44.328C300.125 44.232 299.597 44.184 299.021 44.184C297.997 44.184 297.149 44.424 296.477 44.904C295.837 45.384 295.597 45.96 295.757 46.632C295.917 47.336 296.589 47.8 297.773 48.024C298.957 48.248 300.669 48.408 302.909 48.504C305.373 48.6 307.485 48.904 309.245 49.416C311.037 49.896 312.413 50.648 313.373 51.672C314.365 52.696 314.861 54.088 314.861 55.848C314.861 57.16 314.493 58.328 313.757 59.352C313.053 60.376 312.093 61.224 310.877 61.896C309.693 62.6 308.365 63.128 306.893 63.48C305.421 63.832 303.949 64.008 302.477 64.008ZM302.909 61.656C305.501 61.656 307.501 61.176 308.909 60.216C310.349 59.256 311.069 58.168 311.069 56.952C311.069 55.928 310.717 55.128 310.013 54.552C309.309 54.008 308.317 53.608 307.037 53.352C305.789 53.128 304.317 53 302.621 52.968C301.789 52.904 300.941 52.856 300.077 52.824C299.213 52.792 298.413 52.712 297.677 52.584C296.941 53.096 296.365 53.72 295.949 54.456C295.565 55.192 295.357 55.96 295.325 56.76C295.325 58.232 296.013 59.416 297.389 60.312C298.765 61.208 300.605 61.656 302.909 61.656ZM302.285 42.168C303.373 42.168 304.269 41.896 304.973 41.352C305.709 40.776 306.253 40.024 306.605 39.096C306.989 38.136 307.181 37.096 307.181 35.976C307.181 34.664 306.989 33.432 306.605 32.28C306.221 31.128 305.661 30.2 304.925 29.496C304.189 28.792 303.245 28.44 302.093 28.44C300.525 28.44 299.309 29.064 298.445 30.312C297.581 31.56 297.149 33.064 297.149 34.824C297.149 36.232 297.341 37.496 297.725 38.616C298.141 39.704 298.733 40.568 299.501 41.208C300.269 41.848 301.197 42.168 302.285 42.168ZM329.157 51.768C326.917 51.768 324.901 51.256 323.109 50.232C321.349 49.176 319.957 47.704 318.933 45.816C317.909 43.896 317.397 41.64 317.397 39.048C317.397 36.808 317.893 34.712 318.885 32.76C319.909 30.808 321.333 29.24 323.157 28.056C324.981 26.84 327.093 26.232 329.493 26.232C330.837 26.232 332.101 26.44 333.285 26.856C334.501 27.272 335.573 27.928 336.501 28.824C337.461 29.688 338.213 30.824 338.757 32.232C339.301 33.608 339.573 35.288 339.573 37.272L323.061 37.56C323.061 39.736 323.301 41.672 323.781 43.368C324.293 45.064 325.109 46.376 326.229 47.304C327.349 48.232 328.805 48.696 330.597 48.696C331.461 48.696 332.373 48.552 333.333 48.264C334.325 47.944 335.253 47.496 336.117 46.92C337.013 46.344 337.765 45.656 338.373 44.856L339.861 46.152C338.901 47.592 337.797 48.728 336.549 49.56C335.301 50.36 334.021 50.92 332.709 51.24C331.429 51.592 330.245 51.768 329.157 51.768ZM323.253 35.064H334.341C334.341 33.848 334.165 32.76 333.813 31.8C333.493 30.808 332.981 30.024 332.277 29.448C331.573 28.872 330.677 28.584 329.589 28.584C327.893 28.584 326.501 29.128 325.413 30.216C324.325 31.272 323.605 32.888 323.253 35.064ZM343.336 51V48.888C344.392 48.824 345.144 48.6 345.592 48.216C346.072 47.832 346.376 47.256 346.504 46.488C346.632 45.72 346.696 44.744 346.696 43.56V23.592C346.696 22.888 346.712 22.216 346.744 21.576C346.776 20.904 346.808 20.328 346.84 19.848C346.296 19.88 345.704 19.912 345.064 19.944C344.424 19.976 343.848 20.008 343.336 20.04V17.4H355.144V19.512C354.12 19.544 353.368 19.768 352.888 20.184C352.408 20.568 352.104 21.144 351.976 21.912C351.848 22.648 351.784 23.624 351.784 24.84V32.52H355.336L360.568 24.12C361.048 23.384 361.592 22.6 362.2 21.768C362.808 20.936 363.384 20.28 363.928 19.8C363.448 19.832 362.936 19.864 362.392 19.896C361.88 19.896 361.416 19.912 361 19.944V17.4H371.8V19.512C370.648 19.576 369.576 19.768 368.584 20.088C367.624 20.408 366.68 20.968 365.752 21.768C364.824 22.568 363.848 23.8 362.824 25.464L358.168 32.904C359 33.416 359.688 33.992 360.232 34.632C360.776 35.272 361.304 35.928 361.816 36.6L367.048 43.656C368.072 45.032 368.952 46.104 369.688 46.872C370.456 47.64 371.176 48.168 371.848 48.456C372.52 48.744 373.192 48.888 373.864 48.888V51H367.48C367.192 51 366.776 50.76 366.232 50.28C365.688 49.8 365.096 49.192 364.456 48.456C363.848 47.72 363.256 46.984 362.68 46.248L357.256 38.76C356.712 38.024 356.152 37.304 355.576 36.6C355.032 35.896 354.488 35.384 353.944 35.064H351.784V44.568C351.784 45.432 351.768 46.216 351.736 46.92C351.736 47.592 351.704 48.136 351.64 48.552C352.184 48.488 352.776 48.456 353.416 48.456C354.088 48.424 354.664 48.392 355.144 48.36V51H343.336ZM385.467 51.768C383.675 51.768 382.187 51.432 381.003 50.76C379.851 50.088 378.987 48.984 378.411 47.448C377.835 45.88 377.547 43.816 377.547 41.256V33.72C377.547 33.176 377.547 32.616 377.547 32.04C377.579 31.432 377.643 30.84 377.739 30.264C377.195 30.296 376.619 30.328 376.011 30.36C375.403 30.36 374.859 30.376 374.379 30.408V27.864H375.531C377.131 27.864 378.331 27.72 379.131 27.432C379.931 27.144 380.491 26.84 380.811 26.52H382.635V41.16C382.635 43.688 382.987 45.576 383.691 46.824C384.395 48.072 385.579 48.68 387.243 48.648C388.331 48.648 389.371 48.328 390.363 47.688C391.387 47.048 392.219 46.296 392.859 45.432V34.056C392.859 33.352 392.875 32.696 392.907 32.088C392.939 31.448 393.003 30.84 393.099 30.264C392.523 30.296 391.931 30.328 391.323 30.36C390.715 30.36 390.155 30.376 389.643 30.408V27.864H391.035C392.443 27.864 393.547 27.72 394.347 27.432C395.147 27.144 395.723 26.84 396.075 26.52H397.899L397.851 44.184C397.851 44.696 397.835 45.4 397.803 46.296C397.771 47.16 397.723 47.928 397.659 48.6C398.203 48.568 398.763 48.536 399.339 48.504C399.947 48.472 400.507 48.456 401.019 48.456V51H393.387C393.323 50.488 393.259 50.008 393.195 49.56C393.163 49.112 393.115 48.68 393.051 48.264C392.059 49.192 390.907 50.008 389.595 50.712C388.283 51.416 386.907 51.768 385.467 51.768ZM404.356 51V48.984C405.316 48.984 405.988 48.76 406.372 48.312C406.756 47.864 406.98 47.24 407.044 46.44C407.14 45.64 407.188 44.712 407.188 43.656L407.236 33.672C407.236 33.16 407.236 32.616 407.236 32.04C407.268 31.432 407.332 30.84 407.428 30.264C406.852 30.296 406.26 30.328 405.652 30.36C405.076 30.36 404.532 30.376 404.02 30.408V27.864C405.46 27.864 406.58 27.8 407.38 27.672C408.212 27.512 408.836 27.336 409.252 27.144C409.7 26.952 410.036 26.744 410.26 26.52H411.988C412.02 26.808 412.036 27.08 412.036 27.336C412.068 27.592 412.084 27.864 412.084 28.152C412.116 28.44 412.148 28.808 412.18 29.256C412.884 28.68 413.652 28.168 414.484 27.72C415.316 27.272 416.18 26.92 417.076 26.664C418.004 26.376 418.884 26.232 419.716 26.232C422.564 26.232 424.612 27.096 425.86 28.824C427.14 30.552 427.78 33.256 427.78 36.936V45.048C427.78 45.624 427.764 46.216 427.732 46.824C427.7 47.4 427.652 47.992 427.588 48.6C428.1 48.568 428.612 48.552 429.124 48.552C429.668 48.52 430.164 48.488 430.612 48.456V51H419.908V48.984C420.868 48.984 421.54 48.76 421.924 48.312C422.308 47.864 422.532 47.24 422.596 46.44C422.692 45.64 422.74 44.712 422.74 43.656V36.936C422.708 34.408 422.292 32.504 421.492 31.224C420.724 29.944 419.476 29.32 417.748 29.352C416.724 29.352 415.716 29.608 414.724 30.12C413.732 30.632 412.9 31.256 412.228 31.992C412.228 32.312 412.228 32.664 412.228 33.048C412.228 33.4 412.228 33.768 412.228 34.152V45.048C412.228 45.624 412.212 46.216 412.18 46.824C412.148 47.4 412.1 47.992 412.036 48.6C412.548 48.568 413.06 48.552 413.572 48.552C414.116 48.52 414.612 48.488 415.06 48.456V51H404.356ZM431.731 64.008C430.259 64.008 429.187 63.688 428.515 63.048C427.811 62.408 427.459 61.688 427.459 60.888C427.459 60.248 427.667 59.656 428.083 59.112C428.499 58.6 429.091 58.328 429.859 58.296C430.659 58.264 431.251 58.504 431.635 59.016C432.019 59.528 432.211 60.056 432.211 60.6C432.211 60.696 432.211 60.792 432.211 60.888C432.211 60.984 432.195 61.08 432.163 61.176C432.515 61.336 432.883 61.416 433.267 61.416C434.099 61.416 434.707 61.128 435.091 60.552C435.507 59.976 435.779 59.24 435.907 58.344C436.067 57.48 436.147 56.616 436.147 55.752V33.72C436.147 33.176 436.163 32.632 436.195 32.088C436.227 31.512 436.275 30.904 436.339 30.264C435.763 30.296 435.171 30.328 434.563 30.36C433.987 30.36 433.443 30.376 432.931 30.408V27.864C434.371 27.864 435.523 27.8 436.387 27.672C437.251 27.512 437.907 27.336 438.355 27.144C438.835 26.952 439.187 26.744 439.411 26.52H441.187V51.048C441.187 54.024 440.771 56.472 439.939 58.392C439.107 60.312 437.971 61.72 436.531 62.616C435.123 63.544 433.523 64.008 431.731 64.008ZM438.547 22.104C437.715 22.104 437.011 21.8 436.435 21.192C435.859 20.552 435.571 19.784 435.571 18.888C435.571 17.992 435.875 17.24 436.483 16.632C437.091 15.992 437.779 15.672 438.547 15.672C439.379 15.672 440.067 15.992 440.611 16.632C441.187 17.24 441.475 17.992 441.475 18.888C441.475 19.784 441.187 20.552 440.611 21.192C440.067 21.8 439.379 22.104 438.547 22.104ZM459.251 51C459.187 50.488 459.139 50.04 459.107 49.656C459.075 49.272 459.027 48.872 458.963 48.456C457.875 49.544 456.707 50.376 455.459 50.952C454.211 51.496 452.915 51.768 451.571 51.768C449.267 51.768 447.523 51.208 446.339 50.088C445.187 48.936 444.611 47.512 444.611 45.816C444.611 44.344 445.043 43.064 445.907 41.976C446.771 40.888 447.907 40.008 449.315 39.336C450.723 38.632 452.259 38.12 453.923 37.8C455.587 37.448 457.219 37.272 458.819 37.272V34.44C458.819 33.416 458.723 32.472 458.531 31.608C458.339 30.712 457.939 29.992 457.331 29.448C456.755 28.872 455.843 28.584 454.595 28.584C453.763 28.552 452.931 28.712 452.099 29.064C451.267 29.384 450.627 29.928 450.179 30.696C450.435 30.952 450.595 31.256 450.659 31.608C450.755 31.928 450.803 32.232 450.803 32.52C450.803 32.968 450.611 33.48 450.227 34.056C449.843 34.6 449.187 34.856 448.259 34.824C447.491 34.824 446.899 34.568 446.483 34.056C446.099 33.512 445.907 32.888 445.907 32.184C445.907 31.032 446.323 30.008 447.155 29.112C448.019 28.216 449.187 27.512 450.659 27C452.131 26.488 453.779 26.232 455.603 26.232C458.355 26.232 460.403 26.952 461.747 28.392C463.123 29.832 463.811 32.104 463.811 35.208C463.811 36.36 463.811 37.464 463.811 38.52C463.811 39.576 463.795 40.632 463.763 41.688C463.763 42.744 463.763 43.864 463.763 45.048C463.763 45.528 463.747 46.072 463.715 46.68C463.683 47.288 463.635 47.928 463.571 48.6C464.115 48.568 464.675 48.536 465.251 48.504C465.827 48.472 466.371 48.456 466.883 48.456V51H459.251ZM458.819 39.48C457.795 39.544 456.739 39.688 455.651 39.912C454.595 40.136 453.635 40.472 452.771 40.92C451.907 41.368 451.203 41.944 450.659 42.648C450.147 43.352 449.891 44.2 449.891 45.192C449.955 46.28 450.307 47.08 450.947 47.592C451.619 48.104 452.403 48.36 453.299 48.36C454.419 48.36 455.411 48.152 456.275 47.736C457.139 47.288 457.987 46.68 458.819 45.912C458.787 45.56 458.771 45.208 458.771 44.856C458.771 44.472 458.771 44.072 458.771 43.656C458.771 43.368 458.771 42.84 458.771 42.072C458.803 41.272 458.819 40.408 458.819 39.48Z" fill="#61657A"/>
<path d="M152.533 82.278V85.54H156.089V86.59H152.533V89.95H156.509V91H151.259V81.228H156.509V82.278H152.533ZM162.441 91L160.621 88.144L158.871 91H157.541L160.019 87.192L157.541 83.328H158.983L160.803 86.17L162.539 83.328H163.869L161.405 87.122L163.883 91H162.441ZM166.41 84.742C166.662 84.3033 167.035 83.9393 167.53 83.65C168.034 83.3513 168.617 83.202 169.28 83.202C169.961 83.202 170.577 83.3653 171.128 83.692C171.688 84.0187 172.127 84.4807 172.444 85.078C172.761 85.666 172.92 86.352 172.92 87.136C172.92 87.9107 172.761 88.6013 172.444 89.208C172.127 89.8147 171.688 90.286 171.128 90.622C170.577 90.958 169.961 91.126 169.28 91.126C168.627 91.126 168.048 90.9813 167.544 90.692C167.049 90.3933 166.671 90.0247 166.41 89.586V94.64H165.136V83.328H166.41V84.742ZM171.618 87.136C171.618 86.5573 171.501 86.0533 171.268 85.624C171.035 85.1947 170.717 84.868 170.316 84.644C169.924 84.42 169.49 84.308 169.014 84.308C168.547 84.308 168.113 84.4247 167.712 84.658C167.32 84.882 167.003 85.2133 166.76 85.652C166.527 86.0813 166.41 86.5807 166.41 87.15C166.41 87.7287 166.527 88.2373 166.76 88.676C167.003 89.1053 167.32 89.4367 167.712 89.67C168.113 89.894 168.547 90.006 169.014 90.006C169.49 90.006 169.924 89.894 170.316 89.67C170.717 89.4367 171.035 89.1053 171.268 88.676C171.501 88.2373 171.618 87.724 171.618 87.136ZM175.871 80.64V91H174.597V80.64H175.871ZM181.388 91.126C180.669 91.126 180.016 90.9627 179.428 90.636C178.849 90.3093 178.392 89.8473 178.056 89.25C177.729 88.6433 177.566 87.9433 177.566 87.15C177.566 86.366 177.734 85.6753 178.07 85.078C178.415 84.4713 178.882 84.0093 179.47 83.692C180.058 83.3653 180.716 83.202 181.444 83.202C182.172 83.202 182.83 83.3653 183.418 83.692C184.006 84.0093 184.468 84.4667 184.804 85.064C185.149 85.6613 185.322 86.3567 185.322 87.15C185.322 87.9433 185.145 88.6433 184.79 89.25C184.445 89.8473 183.973 90.3093 183.376 90.636C182.779 90.9627 182.116 91.126 181.388 91.126ZM181.388 90.006C181.845 90.006 182.275 89.8987 182.676 89.684C183.077 89.4693 183.399 89.1473 183.642 88.718C183.894 88.2887 184.02 87.766 184.02 87.15C184.02 86.534 183.899 86.0113 183.656 85.582C183.413 85.1527 183.096 84.8353 182.704 84.63C182.312 84.4153 181.887 84.308 181.43 84.308C180.963 84.308 180.534 84.4153 180.142 84.63C179.759 84.8353 179.451 85.1527 179.218 85.582C178.985 86.0113 178.868 86.534 178.868 87.15C178.868 87.7753 178.98 88.3027 179.204 88.732C179.437 89.1613 179.745 89.4833 180.128 89.698C180.511 89.9033 180.931 90.006 181.388 90.006ZM188.271 84.574C188.495 84.1353 188.813 83.7947 189.223 83.552C189.643 83.3093 190.152 83.188 190.749 83.188V84.504H190.413C188.985 84.504 188.271 85.2787 188.271 86.828V91H186.997V83.328H188.271V84.574ZM199.22 86.87C199.22 87.1127 199.206 87.3693 199.178 87.64H193.046C193.093 88.396 193.349 88.9887 193.816 89.418C194.292 89.838 194.866 90.048 195.538 90.048C196.089 90.048 196.546 89.922 196.91 89.67C197.283 89.4087 197.545 89.0633 197.694 88.634H199.066C198.861 89.3713 198.45 89.9733 197.834 90.44C197.218 90.8973 196.453 91.126 195.538 91.126C194.81 91.126 194.157 90.9627 193.578 90.636C193.009 90.3093 192.561 89.8473 192.234 89.25C191.907 88.6433 191.744 87.9433 191.744 87.15C191.744 86.3567 191.903 85.6613 192.22 85.064C192.537 84.4667 192.981 84.0093 193.55 83.692C194.129 83.3653 194.791 83.202 195.538 83.202C196.266 83.202 196.91 83.3607 197.47 83.678C198.03 83.9953 198.459 84.434 198.758 84.994C199.066 85.5447 199.22 86.17 199.22 86.87ZM197.904 86.604C197.904 86.1187 197.797 85.7033 197.582 85.358C197.367 85.0033 197.073 84.7373 196.7 84.56C196.336 84.3733 195.93 84.28 195.482 84.28C194.838 84.28 194.287 84.4853 193.83 84.896C193.382 85.3067 193.125 85.876 193.06 86.604H197.904ZM206.426 88.046C205.95 88.046 205.544 87.8827 205.208 87.556C204.881 87.22 204.718 86.814 204.718 86.338C204.718 85.8527 204.881 85.4467 205.208 85.12C205.544 84.784 205.95 84.616 206.426 84.616C206.911 84.616 207.322 84.784 207.658 85.12C207.994 85.4467 208.162 85.8527 208.162 86.338C208.162 86.814 207.994 87.22 207.658 87.556C207.322 87.8827 206.911 88.046 206.426 88.046ZM219.274 91L216.95 87.01H215.41V91H214.136V81.242H217.286C218.023 81.242 218.644 81.368 219.148 81.62C219.661 81.872 220.044 82.2127 220.296 82.642C220.548 83.0713 220.674 83.5613 220.674 84.112C220.674 84.784 220.478 85.3767 220.086 85.89C219.703 86.4033 219.125 86.744 218.35 86.912L220.8 91H219.274ZM215.41 85.988H217.286C217.977 85.988 218.495 85.82 218.84 85.484C219.185 85.1387 219.358 84.6813 219.358 84.112C219.358 83.5333 219.185 83.0853 218.84 82.768C218.504 82.4507 217.986 82.292 217.286 82.292H215.41V85.988ZM229.653 86.87C229.653 87.1127 229.639 87.3693 229.611 87.64H223.479C223.526 88.396 223.783 88.9887 224.249 89.418C224.725 89.838 225.299 90.048 225.971 90.048C226.522 90.048 226.979 89.922 227.343 89.67C227.717 89.4087 227.978 89.0633 228.127 88.634H229.499C229.294 89.3713 228.883 89.9733 228.267 90.44C227.651 90.8973 226.886 91.126 225.971 91.126C225.243 91.126 224.59 90.9627 224.011 90.636C223.442 90.3093 222.994 89.8473 222.667 89.25C222.341 88.6433 222.177 87.9433 222.177 87.15C222.177 86.3567 222.336 85.6613 222.653 85.064C222.971 84.4667 223.414 84.0093 223.983 83.692C224.562 83.3653 225.225 83.202 225.971 83.202C226.699 83.202 227.343 83.3607 227.903 83.678C228.463 83.9953 228.893 84.434 229.191 84.994C229.499 85.5447 229.653 86.17 229.653 86.87ZM228.337 86.604C228.337 86.1187 228.23 85.7033 228.015 85.358C227.801 85.0033 227.507 84.7373 227.133 84.56C226.769 84.3733 226.363 84.28 225.915 84.28C225.271 84.28 224.721 84.4853 224.263 84.896C223.815 85.3067 223.559 85.876 223.493 86.604H228.337ZM234.191 89.824L236.571 83.328H237.929L234.919 91H233.435L230.425 83.328H231.797L234.191 89.824ZM239.841 82.082C239.598 82.082 239.393 81.998 239.225 81.83C239.057 81.662 238.973 81.4567 238.973 81.214C238.973 80.9713 239.057 80.766 239.225 80.598C239.393 80.43 239.598 80.346 239.841 80.346C240.074 80.346 240.27 80.43 240.429 80.598C240.597 80.766 240.681 80.9713 240.681 81.214C240.681 81.4567 240.597 81.662 240.429 81.83C240.27 81.998 240.074 82.082 239.841 82.082ZM240.457 83.328V91H239.183V83.328H240.457ZM245.484 89.824L247.864 83.328H249.222L246.212 91H244.728L241.718 83.328H243.09L245.484 89.824ZM257.476 86.87C257.476 87.1127 257.462 87.3693 257.434 87.64H251.302C251.348 88.396 251.605 88.9887 252.072 89.418C252.548 89.838 253.122 90.048 253.794 90.048C254.344 90.048 254.802 89.922 255.166 89.67C255.539 89.4087 255.8 89.0633 255.95 88.634H257.322C257.116 89.3713 256.706 89.9733 256.09 90.44C255.474 90.8973 254.708 91.126 253.794 91.126C253.066 91.126 252.412 90.9627 251.834 90.636C251.264 90.3093 250.816 89.8473 250.49 89.25C250.163 88.6433 250 87.9433 250 87.15C250 86.3567 250.158 85.6613 250.476 85.064C250.793 84.4667 251.236 84.0093 251.806 83.692C252.384 83.3653 253.047 83.202 253.794 83.202C254.522 83.202 255.166 83.3607 255.726 83.678C256.286 83.9953 256.715 84.434 257.014 84.994C257.322 85.5447 257.476 86.17 257.476 86.87ZM256.16 86.604C256.16 86.1187 256.052 85.7033 255.838 85.358C255.623 85.0033 255.329 84.7373 254.956 84.56C254.592 84.3733 254.186 84.28 253.738 84.28C253.094 84.28 252.543 84.4853 252.086 84.896C251.638 85.3067 251.381 85.876 251.316 86.604H256.16ZM264.682 88.046C264.206 88.046 263.8 87.8827 263.464 87.556C263.137 87.22 262.974 86.814 262.974 86.338C262.974 85.8527 263.137 85.4467 263.464 85.12C263.8 84.784 264.206 84.616 264.682 84.616C265.167 84.616 265.578 84.784 265.914 85.12C266.25 85.4467 266.418 85.8527 266.418 86.338C266.418 86.814 266.25 87.22 265.914 87.556C265.578 87.8827 265.167 88.046 264.682 88.046ZM278.916 84.098C278.916 84.91 278.636 85.5867 278.076 86.128C277.525 86.66 276.68 86.926 275.542 86.926H273.666V91H272.392V81.242H275.542C276.643 81.242 277.478 81.508 278.048 82.04C278.626 82.572 278.916 83.258 278.916 84.098ZM275.542 85.876C276.251 85.876 276.774 85.722 277.11 85.414C277.446 85.106 277.614 84.6673 277.614 84.098C277.614 82.894 276.923 82.292 275.542 82.292H273.666V85.876H275.542ZM281.773 84.574C281.997 84.1353 282.314 83.7947 282.725 83.552C283.145 83.3093 283.654 83.188 284.251 83.188V84.504H283.915C282.487 84.504 281.773 85.2787 281.773 86.828V91H280.499V83.328H281.773V84.574ZM292.722 86.87C292.722 87.1127 292.708 87.3693 292.68 87.64H286.548C286.594 88.396 286.851 88.9887 287.318 89.418C287.794 89.838 288.368 90.048 289.04 90.048C289.59 90.048 290.048 89.922 290.412 89.67C290.785 89.4087 291.046 89.0633 291.196 88.634H292.568C292.362 89.3713 291.952 89.9733 291.336 90.44C290.72 90.8973 289.954 91.126 289.04 91.126C288.312 91.126 287.658 90.9627 287.08 90.636C286.51 90.3093 286.062 89.8473 285.736 89.25C285.409 88.6433 285.246 87.9433 285.246 87.15C285.246 86.3567 285.404 85.6613 285.722 85.064C286.039 84.4667 286.482 84.0093 287.052 83.692C287.63 83.3653 288.293 83.202 289.04 83.202C289.768 83.202 290.412 83.3607 290.972 83.678C291.532 83.9953 291.961 84.434 292.26 84.994C292.568 85.5447 292.722 86.17 292.722 86.87ZM291.406 86.604C291.406 86.1187 291.298 85.7033 291.084 85.358C290.869 85.0033 290.575 84.7373 290.202 84.56C289.838 84.3733 289.432 84.28 288.984 84.28C288.34 84.28 287.789 84.4853 287.332 84.896C286.884 85.3067 286.627 85.876 286.562 86.604H291.406ZM297.119 91.126C296.531 91.126 296.004 91.028 295.537 90.832C295.071 90.6267 294.702 90.3467 294.431 89.992C294.161 89.628 294.011 89.2127 293.983 88.746H295.299C295.337 89.1287 295.514 89.4413 295.831 89.684C296.158 89.9267 296.583 90.048 297.105 90.048C297.591 90.048 297.973 89.9407 298.253 89.726C298.533 89.5113 298.673 89.2407 298.673 88.914C298.673 88.578 298.524 88.3307 298.225 88.172C297.927 88.004 297.465 87.8407 296.839 87.682C296.27 87.5327 295.803 87.3833 295.439 87.234C295.085 87.0753 294.777 86.8467 294.515 86.548C294.263 86.24 294.137 85.8387 294.137 85.344C294.137 84.952 294.254 84.5927 294.487 84.266C294.721 83.9393 295.052 83.6827 295.481 83.496C295.911 83.3 296.401 83.202 296.951 83.202C297.801 83.202 298.487 83.4167 299.009 83.846C299.532 84.2753 299.812 84.8633 299.849 85.61H298.575C298.547 85.2087 298.384 84.8867 298.085 84.644C297.796 84.4013 297.404 84.28 296.909 84.28C296.452 84.28 296.088 84.378 295.817 84.574C295.547 84.77 295.411 85.0267 295.411 85.344C295.411 85.596 295.491 85.806 295.649 85.974C295.817 86.1327 296.023 86.2633 296.265 86.366C296.517 86.4593 296.863 86.5667 297.301 86.688C297.852 86.8373 298.3 86.9867 298.645 87.136C298.991 87.276 299.285 87.4907 299.527 87.78C299.779 88.0693 299.91 88.4473 299.919 88.914C299.919 89.334 299.803 89.712 299.569 90.048C299.336 90.384 299.005 90.65 298.575 90.846C298.155 91.0327 297.67 91.126 297.119 91.126ZM308.718 86.87C308.718 87.1127 308.704 87.3693 308.676 87.64H302.544C302.591 88.396 302.847 88.9887 303.314 89.418C303.79 89.838 304.364 90.048 305.036 90.048C305.587 90.048 306.044 89.922 306.408 89.67C306.781 89.4087 307.043 89.0633 307.192 88.634H308.564C308.359 89.3713 307.948 89.9733 307.332 90.44C306.716 90.8973 305.951 91.126 305.036 91.126C304.308 91.126 303.655 90.9627 303.076 90.636C302.507 90.3093 302.059 89.8473 301.732 89.25C301.405 88.6433 301.242 87.9433 301.242 87.15C301.242 86.3567 301.401 85.6613 301.718 85.064C302.035 84.4667 302.479 84.0093 303.048 83.692C303.627 83.3653 304.289 83.202 305.036 83.202C305.764 83.202 306.408 83.3607 306.968 83.678C307.528 83.9953 307.957 84.434 308.256 84.994C308.564 85.5447 308.718 86.17 308.718 86.87ZM307.402 86.604C307.402 86.1187 307.295 85.7033 307.08 85.358C306.865 85.0033 306.571 84.7373 306.198 84.56C305.834 84.3733 305.428 84.28 304.98 84.28C304.336 84.28 303.785 84.4853 303.328 84.896C302.88 85.3067 302.623 85.876 302.558 86.604H307.402ZM311.674 84.574C311.898 84.1353 312.215 83.7947 312.626 83.552C313.046 83.3093 313.554 83.188 314.152 83.188V84.504H313.816C312.388 84.504 311.674 85.2787 311.674 86.828V91H310.4V83.328H311.674V84.574ZM318.478 89.824L320.858 83.328H322.216L319.206 91H317.722L314.712 83.328H316.084L318.478 89.824ZM330.47 86.87C330.47 87.1127 330.456 87.3693 330.428 87.64H324.296C324.343 88.396 324.599 88.9887 325.066 89.418C325.542 89.838 326.116 90.048 326.788 90.048C327.339 90.048 327.796 89.922 328.16 89.67C328.533 89.4087 328.795 89.0633 328.944 88.634H330.316C330.111 89.3713 329.7 89.9733 329.084 90.44C328.468 90.8973 327.703 91.126 326.788 91.126C326.06 91.126 325.407 90.9627 324.828 90.636C324.259 90.3093 323.811 89.8473 323.484 89.25C323.157 88.6433 322.994 87.9433 322.994 87.15C322.994 86.3567 323.153 85.6613 323.47 85.064C323.787 84.4667 324.231 84.0093 324.8 83.692C325.379 83.3653 326.041 83.202 326.788 83.202C327.516 83.202 328.16 83.3607 328.72 83.678C329.28 83.9953 329.709 84.434 330.008 84.994C330.316 85.5447 330.47 86.17 330.47 86.87ZM329.154 86.604C329.154 86.1187 329.047 85.7033 328.832 85.358C328.617 85.0033 328.323 84.7373 327.95 84.56C327.586 84.3733 327.18 84.28 326.732 84.28C326.088 84.28 325.537 84.4853 325.08 84.896C324.632 85.3067 324.375 85.876 324.31 86.604H329.154ZM337.676 88.046C337.2 88.046 336.794 87.8827 336.458 87.556C336.131 87.22 335.968 86.814 335.968 86.338C335.968 85.8527 336.131 85.4467 336.458 85.12C336.794 84.784 337.2 84.616 337.676 84.616C338.161 84.616 338.572 84.784 338.908 85.12C339.244 85.4467 339.412 85.8527 339.412 86.338C339.412 86.814 339.244 87.22 338.908 87.556C338.572 87.8827 338.161 88.046 337.676 88.046ZM351.91 84.098C351.91 84.91 351.63 85.5867 351.07 86.128C350.519 86.66 349.675 86.926 348.536 86.926H346.66V91H345.386V81.242H348.536C349.637 81.242 350.473 81.508 351.042 82.04C351.621 82.572 351.91 83.258 351.91 84.098ZM348.536 85.876C349.245 85.876 349.768 85.722 350.104 85.414C350.44 85.106 350.608 84.6673 350.608 84.098C350.608 82.894 349.917 82.292 348.536 82.292H346.66V85.876H348.536ZM354.767 84.574C354.991 84.1353 355.309 83.7947 355.719 83.552C356.139 83.3093 356.648 83.188 357.245 83.188V84.504H356.909C355.481 84.504 354.767 85.2787 354.767 86.828V91H353.493V83.328H354.767V84.574ZM362.062 91.126C361.343 91.126 360.69 90.9627 360.102 90.636C359.523 90.3093 359.066 89.8473 358.73 89.25C358.403 88.6433 358.24 87.9433 358.24 87.15C358.24 86.366 358.408 85.6753 358.744 85.078C359.089 84.4713 359.556 84.0093 360.144 83.692C360.732 83.3653 361.39 83.202 362.118 83.202C362.846 83.202 363.504 83.3653 364.092 83.692C364.68 84.0093 365.142 84.4667 365.478 85.064C365.823 85.6613 365.996 86.3567 365.996 87.15C365.996 87.9433 365.819 88.6433 365.464 89.25C365.119 89.8473 364.647 90.3093 364.05 90.636C363.453 90.9627 362.79 91.126 362.062 91.126ZM362.062 90.006C362.519 90.006 362.949 89.8987 363.35 89.684C363.751 89.4693 364.073 89.1473 364.316 88.718C364.568 88.2887 364.694 87.766 364.694 87.15C364.694 86.534 364.573 86.0113 364.33 85.582C364.087 85.1527 363.77 84.8353 363.378 84.63C362.986 84.4153 362.561 84.308 362.104 84.308C361.637 84.308 361.208 84.4153 360.816 84.63C360.433 84.8353 360.125 85.1527 359.892 85.582C359.659 86.0113 359.542 86.534 359.542 87.15C359.542 87.7753 359.654 88.3027 359.878 88.732C360.111 89.1613 360.419 89.4833 360.802 89.698C361.185 89.9033 361.605 90.006 362.062 90.006ZM376.897 83.188C377.494 83.188 378.026 83.314 378.493 83.566C378.96 83.8087 379.328 84.1773 379.599 84.672C379.87 85.1667 380.005 85.7687 380.005 86.478V91H378.745V86.66C378.745 85.8947 378.554 85.3113 378.171 84.91C377.798 84.4993 377.289 84.294 376.645 84.294C375.982 84.294 375.455 84.5087 375.063 84.938C374.671 85.358 374.475 85.9693 374.475 86.772V91H373.215V86.66C373.215 85.8947 373.024 85.3113 372.641 84.91C372.268 84.4993 371.759 84.294 371.115 84.294C370.452 84.294 369.925 84.5087 369.533 84.938C369.141 85.358 368.945 85.9693 368.945 86.772V91H367.671V83.328H368.945V84.434C369.197 84.0327 369.533 83.7247 369.953 83.51C370.382 83.2953 370.854 83.188 371.367 83.188C372.011 83.188 372.58 83.3327 373.075 83.622C373.57 83.9113 373.938 84.336 374.181 84.896C374.396 84.3547 374.75 83.9347 375.245 83.636C375.74 83.3373 376.29 83.188 376.897 83.188ZM385.441 91.126C384.722 91.126 384.069 90.9627 383.481 90.636C382.902 90.3093 382.445 89.8473 382.109 89.25C381.782 88.6433 381.619 87.9433 381.619 87.15C381.619 86.366 381.787 85.6753 382.123 85.078C382.468 84.4713 382.935 84.0093 383.523 83.692C384.111 83.3653 384.769 83.202 385.497 83.202C386.225 83.202 386.883 83.3653 387.471 83.692C388.059 84.0093 388.521 84.4667 388.857 85.064C389.202 85.6613 389.375 86.3567 389.375 87.15C389.375 87.9433 389.198 88.6433 388.843 89.25C388.498 89.8473 388.026 90.3093 387.429 90.636C386.832 90.9627 386.169 91.126 385.441 91.126ZM385.441 90.006C385.898 90.006 386.328 89.8987 386.729 89.684C387.13 89.4693 387.452 89.1473 387.695 88.718C387.947 88.2887 388.073 87.766 388.073 87.15C388.073 86.534 387.952 86.0113 387.709 85.582C387.466 85.1527 387.149 84.8353 386.757 84.63C386.365 84.4153 385.94 84.308 385.483 84.308C385.016 84.308 384.587 84.4153 384.195 84.63C383.812 84.8353 383.504 85.1527 383.271 85.582C383.038 86.0113 382.921 86.534 382.921 87.15C382.921 87.7753 383.033 88.3027 383.257 88.732C383.49 89.1613 383.798 89.4833 384.181 89.698C384.564 89.9033 384.984 90.006 385.441 90.006ZM392.604 84.378V88.9C392.604 89.2733 392.683 89.5393 392.842 89.698C393.001 89.8473 393.276 89.922 393.668 89.922H394.606V91H393.458C392.749 91 392.217 90.8367 391.862 90.51C391.507 90.1833 391.33 89.6467 391.33 88.9V84.378H390.336V83.328H391.33V81.396H392.604V83.328H394.606V84.378H392.604ZM403.15 86.87C403.15 87.1127 403.136 87.3693 403.108 87.64H396.976C397.022 88.396 397.279 88.9887 397.746 89.418C398.222 89.838 398.796 90.048 399.468 90.048C400.018 90.048 400.476 89.922 400.84 89.67C401.213 89.4087 401.474 89.0633 401.624 88.634H402.996C402.79 89.3713 402.38 89.9733 401.764 90.44C401.148 90.8973 400.382 91.126 399.468 91.126C398.74 91.126 398.086 90.9627 397.508 90.636C396.938 90.3093 396.49 89.8473 396.164 89.25C395.837 88.6433 395.674 87.9433 395.674 87.15C395.674 86.3567 395.832 85.6613 396.15 85.064C396.467 84.4667 396.91 84.0093 397.48 83.692C398.058 83.3653 398.721 83.202 399.468 83.202C400.196 83.202 400.84 83.3607 401.4 83.678C401.96 83.9953 402.389 84.434 402.688 84.994C402.996 85.5447 403.15 86.17 403.15 86.87ZM401.834 86.604C401.834 86.1187 401.726 85.7033 401.512 85.358C401.297 85.0033 401.003 84.7373 400.63 84.56C400.266 84.3733 399.86 84.28 399.412 84.28C398.768 84.28 398.217 84.4853 397.76 84.896C397.312 85.3067 397.055 85.876 396.99 86.604H401.834Z" fill="#61657A"/>
<rect width="56.9026" height="0.24527" transform="matrix(1 0 0 -1 53.7394 83.0211)" fill="#927153"/>
<rect x="53.7394" y="80.3231" width="56.9026" height="2.4527" fill="#B2785E"/>
<rect x="53.9846" y="82.5306" width="56.1668" height="6.37701" fill="#C48B65"/>
<rect x="54.0182" y="34.4576" width="56.4121" height="15.6973" fill="#C48B65"/>
<rect x="53.9846" y="49.6644" width="56.4121" height="0.49054" fill="#AC7856"/>
<rect x="53.9846" y="40.5894" width="56.4121" height="0.49054" fill="#AC7856"/>
<rect x="53.9846" y="45.0043" width="56.4121" height="0.49054" fill="#AC7856"/>
<rect x="53.9846" y="36.7625" width="56.4121" height="0.49054" fill="#AC7856"/>
<rect x="52.0562" y="50.155" width="60.3364" height="1.96216" fill="#B2785E"/>
<rect x="92.875" y="64.6575" width="17.8335" height="3.87056" transform="rotate(90 92.875 64.6575)" fill="#B2785E"/>
<rect x="92.8801" y="82.5306" width="6.86755" height="3.92432" transform="rotate(90 92.8801 82.5306)" fill="#DDD9D9"/>
<rect x="92.875" y="62.1099" width="2.54764" height="3.87056" transform="rotate(90 92.875 62.1099)" fill="#B2785E"/>
<rect x="92.2299" y="56.0592" width="6.3691" height="2.58037" transform="rotate(90 92.2299 56.0592)" fill="#B2785E"/>
<rect x="92.6599" y="54.1485" width="2.22919" height="3.4405" transform="rotate(90 92.6599 54.1485)" fill="#B2785E"/>
<path fill-rule="evenodd" clip-rule="evenodd" d="M90.9179 52.1171H84.2957V52.6123C84.6992 52.643 85.0608 52.8239 85.3245 53.0992C85.3494 53.0985 85.3744 53.0982 85.3995 53.0982C85.9737 53.0982 86.5041 53.2861 86.9323 53.6039C87.5729 53.6674 88.1554 53.9282 88.6184 54.3245H90.9179V52.1171Z" fill="#B2785E"/>
<path fill-rule="evenodd" clip-rule="evenodd" d="M90.918 52.1171H97.5403V52.6123C97.1368 52.643 96.7752 52.8239 96.5115 53.0992C96.4866 53.0985 96.4616 53.0982 96.4365 53.0982C95.8623 53.0982 95.332 53.2861 94.9037 53.6039C94.2631 53.6674 93.6806 53.9282 93.2176 54.3245H90.918V52.1171Z" fill="#B2785E"/>
<rect x="75.2156" y="64.6575" width="17.8335" height="3.87056" transform="rotate(90 75.2156 64.6575)" fill="#B2785E"/>
<rect x="75.1492" y="82.5306" width="6.86755" height="3.92432" transform="rotate(90 75.1492 82.5306)" fill="#DDD9D9"/>
<rect x="75.2156" y="62.1099" width="2.54764" height="3.87056" transform="rotate(90 75.2156 62.1099)" fill="#B2785E"/>
<rect x="74.5704" y="56.0592" width="6.3691" height="2.58037" transform="rotate(90 74.5704 56.0592)" fill="#B2785E"/>
<rect x="75.0005" y="54.1485" width="2.22919" height="3.4405" transform="rotate(90 75.0005 54.1485)" fill="#B2785E"/>
<path fill-rule="evenodd" clip-rule="evenodd" d="M73.1871 52.1171H66.5648V52.6123C66.9683 52.643 67.3298 52.8239 67.5936 53.0992C67.6185 53.0985 67.6434 53.0982 67.6685 53.0982C68.2427 53.0982 68.7731 53.2861 69.2013 53.6039C69.8419 53.6674 70.4244 53.9282 70.8875 54.3245H73.1871V52.1171Z" fill="#B2785E"/>
<path fill-rule="evenodd" clip-rule="evenodd" d="M73.187 52.1171H79.8093V52.6123C79.4058 52.643 79.0443 52.8239 78.7805 53.0992C78.7556 53.0985 78.7307 53.0982 78.7056 53.0982C78.1313 53.0982 77.601 53.2861 77.1727 53.6039C76.5322 53.6674 75.9496 53.9282 75.4866 54.3245H73.187V52.1171Z" fill="#B2785E"/>
<rect x="57.6099" y="64.6259" width="17.8335" height="3.87056" transform="rotate(90 57.6099 64.6259)" fill="#B2785E"/>
<rect x="57.6637" y="82.5306" width="6.86755" height="3.92432" transform="rotate(90 57.6637 82.5306)" fill="#DDD9D9"/>
<rect x="57.6099" y="62.1732" width="2.54764" height="3.87056" transform="rotate(90 57.6099 62.1732)" fill="#B2785E"/>
<rect x="56.9279" y="56.0414" width="6.37701" height="2.4527" transform="rotate(90 56.9279 56.0414)" fill="#B2785E"/>
<rect x="57.4185" y="54.0793" width="2.20743" height="3.43378" transform="rotate(90 57.4185 54.0793)" fill="#B2785E"/>
<path fill-rule="evenodd" clip-rule="evenodd" d="M52.0225 52.1171H62.3239V52.6123C61.9203 52.643 61.5587 52.8239 61.295 53.0992C61.2701 53.0985 61.2452 53.0982 61.2201 53.0982C60.6459 53.0982 60.1155 53.2861 59.6873 53.6039C59.0467 53.6674 58.4642 53.9282 58.0011 54.3245H52.0225V52.1171Z" fill="#B2785E"/>
<rect width="17.9047" height="3.92432" transform="matrix(5.31276e-08 1 1 -3.59641e-08 106.718 64.6259)" fill="#B2785E"/>
<rect width="6.86755" height="3.92432" transform="matrix(4.13958e-08 1 1 -4.61566e-08 106.718 82.5306)" fill="#DDD9D9"/>
<rect width="2.4527" height="3.92432" transform="matrix(5.31276e-08 1 1 -3.59641e-08 106.718 62.1732)" fill="#B2785E"/>
<rect width="6.37701" height="2.4527" transform="matrix(5.31276e-08 1 1 -3.59641e-08 107.453 56.0414)" fill="#B2785E"/>
<rect width="2.20743" height="3.43378" transform="matrix(5.97685e-08 1 1 -3.19681e-08 106.963 54.0793)" fill="#B2785E"/>
<path fill-rule="evenodd" clip-rule="evenodd" d="M112.359 52.1171H102.057V52.6123C102.461 52.643 102.823 52.8239 103.086 53.0992C103.111 53.0985 103.136 53.0982 103.161 53.0982C103.735 53.0982 104.266 53.2861 104.694 53.6039C105.335 53.6674 105.917 53.9282 106.38 54.3245H112.359V52.1171Z" fill="#B2785E"/>
<path d="M53.0891 89.3747C53.0891 89.0221 53.375 88.7363 53.7276 88.7363H110.552C110.905 88.7363 111.191 89.0221 111.191 89.3747H53.0891Z" fill="#B2785E"/>
<rect x="52.0225" y="51.8718" width="60.3364" height="0.24527" fill="#9F644B"/>
<rect x="53.7394" y="80.0779" width="56.9026" height="0.24527" fill="#9F644B"/>
<rect x="53.7394" y="82.5306" width="56.9026" height="0.24527" fill="#9F644B"/>
<rect x="66.5554" y="35.9877" width="7.52609" height="1.27696" transform="rotate(90 66.5554 35.9877)" fill="#A76E54"/>
<rect x="58.5743" y="35.9877" width="7.52609" height="1.27696" transform="rotate(90 58.5743 35.9877)" fill="#A76E54"/>
<rect x="74.5364" y="35.9877" width="7.52609" height="1.27696" transform="rotate(90 74.5364 35.9877)" fill="#A76E54"/>
<rect x="82.5173" y="35.9877" width="7.52609" height="1.27696" transform="rotate(90 82.5173 35.9877)" fill="#A76E54"/>
<rect x="90.4984" y="35.7424" width="7.52609" height="1.27696" transform="rotate(90 90.4984 35.7424)" fill="#A76E54"/>
<rect x="98.4794" y="35.9877" width="7.52609" height="1.27696" transform="rotate(90 98.4794 35.9877)" fill="#A76E54"/>
<rect x="106.46" y="35.9877" width="7.52609" height="1.27696" transform="rotate(90 106.46 35.9877)" fill="#A76E54"/>
<rect width="9.41297" height="1.27696" transform="matrix(0.688162 0.725557 -0.688162 0.725557 49.5254 34.9119)" fill="#A76E54"/>
<rect width="10.3542" height="1.27696" transform="matrix(-0.688162 0.725557 0.688162 0.725557 114.923 34.229)" fill="#A76E54"/>
<rect x="53.5277" y="41.08" width="57.3931" height="3.92432" fill="#B2785E"/>
<rect x="63.0596" y="46.2306" width="3.01043" height="0.430062" fill="#595959"/>
<rect x="63.0596" y="48.3809" width="3.01043" height="0.430062" fill="#595959"/>
<rect x="63.7047" y="46.6607" width="1.72025" height="1.72025" fill="#595959"/>
<rect x="80.719" y="46.2306" width="3.01043" height="0.430062" fill="#595959"/>
<rect x="80.719" y="48.3809" width="3.01043" height="0.430062" fill="#595959"/>
<rect x="81.3641" y="46.6607" width="1.72025" height="1.72025" fill="#595959"/>
<rect x="98.3784" y="46.2307" width="3.01043" height="0.430062" fill="#595959"/>
<rect x="98.3784" y="48.3809" width="3.01043" height="0.430062" fill="#595959"/>
<rect x="99.0236" y="46.6607" width="1.72025" height="1.72025" fill="#595959"/>
<g clip-path="url(#clip0_151_1644)">
<path d="M43.6115 32.5343H129.211V36.2757H43.6115V32.5343Z" fill="#D85C5C"/>
<rect x="45.8898" y="32.7956" width="85.5824" height="0.63848" fill="#CC5858"/>
<rect x="45.8309" y="36.2758" width="76.6176" height="0.63848" fill="#FFE072"/>
</g>
<g clip-path="url(#clip1_151_1644)">
<path fill-rule="evenodd" clip-rule="evenodd" d="M79.6235 20.9779H81.979H82.4695H84.825L120.368 29.1437C120.368 29.1437 120.242 29.7068 120.621 30.4108C121.001 31.1147 121.507 30.9739 121.507 30.9739L122.392 29.2845C122.392 29.2845 122.519 31.1147 122.392 31.9595C122.266 32.8042 121.507 32.8042 121.507 32.8042H82.4695H81.979H42.9416C42.9416 32.8042 42.1827 32.8042 42.0562 31.9595C41.9297 31.1147 42.0562 29.2845 42.0562 29.2845L42.9416 30.9739C42.9416 30.9739 43.4476 31.1147 43.8271 30.4108C44.2065 29.7068 44.08 29.1437 44.08 29.1437L79.6235 20.9779Z" fill="#C48B65"/>
<path d="M83.639 22.1825L120.548 30.585" stroke="#AC7856" stroke-width="0.122635" stroke-linecap="round" stroke-linejoin="round"/>
<path d="M80.8123 22.1825L43.965 30.5668" stroke="#AC7856" stroke-width="0.122635" stroke-linecap="round" stroke-linejoin="round"/>
<path fill-rule="evenodd" clip-rule="evenodd" d="M44.8475 30.3668V37.122C44.8475 37.1749 44.8904 37.2177 44.9433 37.2177C44.9962 37.2177 45.0391 37.1749 45.0391 37.122V30.3235L44.8475 30.3668ZM46.8097 29.9235V37.122C46.8097 37.1749 46.8526 37.2177 46.9055 37.2177C46.9584 37.2177 47.0012 37.1749 47.0012 37.122V29.8802L46.8097 29.9235ZM48.7719 29.4801V37.122C48.7719 37.1749 48.8147 37.2177 48.8676 37.2177C48.9205 37.2177 48.9634 37.1749 48.9634 37.122V29.4369L48.7719 29.4801ZM50.734 29.0368V37.122C50.734 37.1749 50.7769 37.2177 50.8298 37.2177C50.8827 37.2177 50.9256 37.1749 50.9256 37.122V28.9935L50.734 29.0368ZM52.6962 28.5935V37.122C52.6962 37.1749 52.739 37.2177 52.7919 37.2177C52.8448 37.2177 52.8877 37.1749 52.8877 37.122V28.5502L52.6962 28.5935ZM54.6583 28.1502V37.122C54.6583 37.1749 54.7012 37.2177 54.7541 37.2177C54.807 37.2177 54.8499 37.1749 54.8499 37.122V28.1069L54.6583 28.1502ZM56.6205 27.7068V37.122C56.6205 37.1749 56.6634 37.2177 56.7163 37.2177C56.7692 37.2177 56.812 37.1749 56.812 37.122V27.6636L56.6205 27.7068ZM58.5826 27.2635V37.122C58.5826 37.1749 58.6255 37.2177 58.6784 37.2177C58.7313 37.2177 58.7742 37.1749 58.7742 37.122V27.2202L58.5826 27.2635ZM60.5448 26.8202V37.122C60.5448 37.1749 60.5877 37.2177 60.6406 37.2177C60.6935 37.2177 60.7363 37.1749 60.7363 37.122V26.7769L60.5448 26.8202ZM62.507 26.3769V37.122C62.507 37.1749 62.5498 37.2177 62.6027 37.2177C62.6556 37.2177 62.6985 37.1749 62.6985 37.122V26.3336L62.507 26.3769ZM64.4691 25.9335V37.122C64.4691 37.1749 64.512 37.2177 64.5649 37.2177C64.6178 37.2177 64.6607 37.1749 64.6607 37.122V25.8903L64.4691 25.9335ZM66.4313 25.4902V37.122C66.4313 37.1749 66.4742 37.2177 66.527 37.2177C66.5799 37.2177 66.6228 37.1749 66.6228 37.122V25.4469L66.4313 25.4902ZM68.3934 25.0469V37.122C68.3934 37.1749 68.4363 37.2177 68.4892 37.2177C68.5421 37.2177 68.585 37.1749 68.585 37.122V25.0036L68.3934 25.0469ZM70.3556 24.6036V37.122C70.3556 37.1749 70.3985 37.2177 70.4514 37.2177C70.5043 37.2177 70.5471 37.1749 70.5471 37.122V24.5603L70.3556 24.6036ZM72.3178 24.1602V37.122C72.3178 37.1749 72.3606 37.2177 72.4135 37.2177C72.4664 37.2177 72.5093 37.1749 72.5093 37.122V24.117L72.3178 24.1602ZM74.2799 23.7169V37.122C74.2799 37.1749 74.3228 37.2177 74.3757 37.2177C74.4286 37.2177 74.4715 37.1749 74.4715 37.122V23.6736L74.2799 23.7169ZM76.2421 23.2736V37.122C76.2421 37.1749 76.2849 37.2177 76.3378 37.2177C76.3907 37.2177 76.4336 37.1749 76.4336 37.122V23.2303L76.2421 23.2736ZM78.2042 22.8303V37.122C78.2042 37.1749 78.2471 37.2177 78.3 37.2177C78.3529 37.2177 78.3958 37.1749 78.3958 37.122V22.787L78.2042 22.8303ZM80.1664 22.3869V37.122C80.1664 37.1749 80.2093 37.2177 80.2622 37.2177C80.3151 37.2177 80.3579 37.1749 80.3579 37.122V22.3437L80.1664 22.3869ZM82.1285 21.9436V37.122C82.1285 37.1749 82.1714 37.2177 82.2243 37.2177C82.2772 37.2177 82.3201 37.1749 82.3201 37.122V21.9003L82.1285 21.9436Z" fill="#AC7856"/>
<path fill-rule="evenodd" clip-rule="evenodd" d="M119.662 30.3668V37.122C119.662 37.1749 119.619 37.2177 119.567 37.2177C119.514 37.2177 119.471 37.1749 119.471 37.122V30.3235L119.662 30.3668ZM117.7 29.9235V37.122C117.7 37.1749 117.657 37.2177 117.604 37.2177C117.552 37.2177 117.509 37.1749 117.509 37.122V29.8802L117.7 29.9235ZM115.738 29.4801V37.122C115.738 37.1749 115.695 37.2177 115.642 37.2177C115.589 37.2177 115.546 37.1749 115.546 37.122V29.4369L115.738 29.4801ZM113.776 29.0368V37.122C113.776 37.1749 113.733 37.2177 113.68 37.2177C113.627 37.2177 113.584 37.1749 113.584 37.122V28.9935L113.776 29.0368ZM111.814 28.5935V37.122C111.814 37.1749 111.771 37.2177 111.718 37.2177C111.665 37.2177 111.622 37.1749 111.622 37.122V28.5502L111.814 28.5935ZM109.852 28.1502V37.122C109.852 37.1749 109.809 37.2177 109.756 37.2177C109.703 37.2177 109.66 37.1749 109.66 37.122V28.1069L109.852 28.1502ZM107.889 27.7068V37.122C107.889 37.1749 107.847 37.2177 107.794 37.2177C107.741 37.2177 107.698 37.1749 107.698 37.122V27.6636L107.889 27.7068ZM105.927 27.2635V37.122C105.927 37.1749 105.884 37.2177 105.831 37.2177C105.779 37.2177 105.736 37.1749 105.736 37.122V27.2202L105.927 27.2635ZM103.965 26.8202V37.122C103.965 37.1749 103.922 37.2177 103.869 37.2177C103.816 37.2177 103.774 37.1749 103.774 37.122V26.7769L103.965 26.8202ZM102.003 26.3769V37.122C102.003 37.1749 101.96 37.2177 101.907 37.2177C101.854 37.2177 101.811 37.1749 101.811 37.122V26.3336L102.003 26.3769ZM100.041 25.9335V37.122C100.041 37.1749 99.9979 37.2177 99.945 37.2177C99.8921 37.2177 99.8492 37.1749 99.8492 37.122V25.8903L100.041 25.9335ZM98.0786 25.4902V37.122C98.0786 37.1749 98.0357 37.2177 97.9828 37.2177C97.9299 37.2177 97.8871 37.1749 97.8871 37.122V25.4469L98.0786 25.4902ZM96.1165 25.0469V37.122C96.1165 37.1749 96.0736 37.2177 96.0207 37.2177C95.9678 37.2177 95.9249 37.1749 95.9249 37.122V25.0036L96.1165 25.0469ZM94.1543 24.6036V37.122C94.1543 37.1749 94.1114 37.2177 94.0585 37.2177C94.0056 37.2177 93.9627 37.1749 93.9627 37.122V24.5603L94.1543 24.6036ZM92.1921 24.1602V37.122C92.1921 37.1749 92.1493 37.2177 92.0964 37.2177C92.0435 37.2177 92.0006 37.1749 92.0006 37.122V24.117L92.1921 24.1602ZM90.23 23.7169V37.122C90.23 37.1749 90.1871 37.2177 90.1342 37.2177C90.0813 37.2177 90.0384 37.1749 90.0384 37.122V23.6736L90.23 23.7169ZM88.2678 23.2736V37.122C88.2678 37.1749 88.2249 37.2177 88.172 37.2177C88.1192 37.2177 88.0763 37.1749 88.0763 37.122V23.2303L88.2678 23.2736ZM86.3057 22.8303V37.122C86.3057 37.1749 86.2628 37.2177 86.2099 37.2177C86.157 37.2177 86.1141 37.1749 86.1141 37.122V22.787L86.3057 22.8303ZM84.3435 22.3869V37.122C84.3435 37.1749 84.3006 37.2177 84.2477 37.2177C84.1948 37.2177 84.152 37.1749 84.152 37.122V22.3437L84.3435 22.3869ZM82.3813 21.9436V37.122C82.3813 37.1749 82.3385 37.2177 82.2856 37.2177C82.2327 37.2177 82.1898 37.1749 82.1898 37.122V21.9003L82.3813 21.9436Z" fill="#AC7856"/>
<path d="M80.7527 18.8635C80.5074 19.6626 80.1395 19.8224 80.0168 20.4616H82.2243V11.1924C82.2243 11.1924 81.979 11.6718 81.979 11.8316V12.3111C81.979 12.3111 81.8564 12.4709 81.8564 12.6307V12.9503C81.8564 12.9503 81.7337 13.1102 81.7337 13.27V13.5896C81.7337 13.5896 81.4885 13.9092 81.4885 14.0691C81.4885 14.2289 81.6111 14.5485 81.6111 14.5485L81.4885 14.8681C81.4885 14.8681 81.1206 15.0279 81.1206 15.3476C81.1206 15.6672 81.2432 15.7311 81.2432 15.9868C81.2432 16.3065 80.9979 18.0644 80.7527 18.8635Z" fill="#FFE072"/>
<path d="M83.6958 18.8635C83.9411 19.6626 84.309 19.8224 84.4316 20.4616H82.2242V11.1924C82.2242 11.1924 82.4695 11.6718 82.4695 11.8316V12.3111C82.4695 12.3111 82.5921 12.4709 82.5921 12.6307V12.9503C82.5921 12.9503 82.7148 13.1102 82.7148 13.27V13.5896C82.7148 13.5896 82.96 13.9092 82.96 14.0691C82.96 14.2289 82.8374 14.5485 82.8374 14.5485L82.96 14.8681C82.96 14.8681 83.3279 15.0279 83.3279 15.3476C83.3279 15.6672 83.2053 15.7311 83.2053 15.9868C83.2053 16.3065 83.4506 18.0644 83.6958 18.8635Z" fill="#FFE072"/>
<path d="M79.7715 20.4617C79.7715 20.1908 79.9911 19.9711 80.262 19.9711H84.1863C84.4573 19.9711 84.6769 20.1908 84.6769 20.4617H79.7715Z" fill="#E4C75F"/>
<rect x="79.6703" y="20.1311" width="5.10784" height="1.99334" fill="#C48B65"/>
<path d="M79.7175 21.018L80.8755 22.1759" stroke="#AC7856" stroke-width="0.121311" stroke-linecap="round" stroke-linejoin="round"/>
<path d="M80.8855 22.1759L83.6936 22.1759" stroke="#AC7856" stroke-width="0.121311" stroke-linecap="round" stroke-linejoin="round"/>
<path d="M84.7782 21.0434L83.6391 22.1825" stroke="#AC7856" stroke-width="0.121311" stroke-linecap="round" stroke-linejoin="round"/>
</g>
<defs>
<clipPath id="clip0_151_1644">
<rect width="72.7867" height="5.42708" fill="white" transform="translate(45.8309 32.2308)"/>
</clipPath>
<clipPath id="clip1_151_1644">
<rect width="80.4485" height="24.4857" fill="white" transform="translate(42 8.31921)"/>
</clipPath>
</defs>
</svg>
