<svg width="252" height="258" viewBox="0 0 252 258" fill="none" xmlns="http://www.w3.org/2000/svg">
<rect width="178.244" height="0.768293" transform="matrix(1 0 0 -1 36.7727 234.999)" fill="#927153"/>
<rect x="36.7727" y="226.548" width="178.244" height="7.68293" fill="#B2785E"/>
<rect x="37.541" y="233.462" width="175.939" height="19.9756" fill="#C48B65"/>
<rect x="37.6464" y="82.877" width="176.707" height="49.1707" fill="#C48B65"/>
<rect x="37.541" y="130.511" width="176.707" height="1.53659" fill="#AC7856"/>
<rect x="37.541" y="102.084" width="176.707" height="1.53659" fill="#AC7856"/>
<rect x="37.541" y="115.914" width="176.707" height="1.53659" fill="#AC7856"/>
<rect x="37.541" y="90.0966" width="176.707" height="1.53659" fill="#AC7856"/>
<rect x="31.5001" y="132.048" width="189" height="6.14634" fill="#B2785E"/>
<rect x="159.363" y="177.476" width="55.8623" height="12.1243" transform="rotate(90 159.363 177.476)" fill="#B2785E"/>
<rect x="159.379" y="233.462" width="21.5122" height="12.2927" transform="rotate(90 159.379 233.462)" fill="#DDD9D9"/>
<rect x="159.363" y="169.496" width="7.98033" height="12.1243" transform="rotate(90 159.363 169.496)" fill="#B2785E"/>
<rect x="157.342" y="150.543" width="19.9508" height="8.08286" transform="rotate(90 157.342 150.543)" fill="#B2785E"/>
<rect x="158.689" y="144.557" width="6.98279" height="10.7771" transform="rotate(90 158.689 144.557)" fill="#B2785E"/>
<path fill-rule="evenodd" clip-rule="evenodd" d="M153.232 138.194H132.489V139.745C133.753 139.841 134.885 140.408 135.711 141.271C135.789 141.268 135.867 141.267 135.946 141.267C137.745 141.267 139.406 141.856 140.747 142.851C142.754 143.05 144.579 143.867 146.029 145.109H153.232V138.194Z" fill="#B2785E"/>
<path fill-rule="evenodd" clip-rule="evenodd" d="M153.232 138.194H173.976V139.745C172.712 139.841 171.58 140.408 170.754 141.271C170.676 141.268 170.598 141.267 170.519 141.267C168.72 141.267 167.059 141.856 165.718 142.851C163.711 143.05 161.886 143.867 160.436 145.109H153.232V138.194Z" fill="#B2785E"/>
<rect x="104.046" y="177.476" width="55.8623" height="12.1243" transform="rotate(90 104.046 177.476)" fill="#B2785E"/>
<rect x="103.838" y="233.462" width="21.5122" height="12.2927" transform="rotate(90 103.838 233.462)" fill="#DDD9D9"/>
<rect x="104.046" y="169.496" width="7.98033" height="12.1243" transform="rotate(90 104.046 169.496)" fill="#B2785E"/>
<rect x="102.025" y="150.543" width="19.9508" height="8.08286" transform="rotate(90 102.025 150.543)" fill="#B2785E"/>
<rect x="103.372" y="144.557" width="6.98279" height="10.7771" transform="rotate(90 103.372 144.557)" fill="#B2785E"/>
<path fill-rule="evenodd" clip-rule="evenodd" d="M97.6915 138.194H76.9476V139.745C78.2117 139.841 79.3442 140.408 80.1703 141.271C80.2483 141.268 80.3265 141.267 80.405 141.267C82.2038 141.267 83.865 141.856 85.2066 142.851C87.2131 143.05 89.038 143.867 90.4884 145.109H97.6915V138.194Z" fill="#B2785E"/>
<path fill-rule="evenodd" clip-rule="evenodd" d="M97.6916 138.194H118.435V139.745C117.171 139.841 116.039 140.408 115.213 141.271C115.135 141.268 115.057 141.267 114.978 141.267C113.179 141.267 111.518 141.856 110.177 142.851C108.17 143.05 106.345 143.867 104.895 145.109H97.6916V138.194Z" fill="#B2785E"/>
<rect x="48.897" y="177.377" width="55.8623" height="12.1243" transform="rotate(90 48.897 177.377)" fill="#B2785E"/>
<rect x="49.0654" y="233.462" width="21.5122" height="12.2927" transform="rotate(90 49.0654 233.462)" fill="#DDD9D9"/>
<rect x="48.897" y="169.694" width="7.98033" height="12.1243" transform="rotate(90 48.897 169.694)" fill="#B2785E"/>
<rect x="46.7606" y="150.487" width="19.9756" height="7.68293" transform="rotate(90 46.7606 150.487)" fill="#B2785E"/>
<rect x="48.2971" y="144.34" width="6.91463" height="10.7561" transform="rotate(90 48.2971 144.34)" fill="#B2785E"/>
<path fill-rule="evenodd" clip-rule="evenodd" d="M31.3946 138.194H63.6629V139.745C62.3989 139.841 61.2664 140.408 60.4402 141.271C60.3622 141.268 60.284 141.267 60.2055 141.267C58.4067 141.267 56.7455 141.856 55.4039 142.851C53.3973 143.05 51.5725 143.867 50.1221 145.109H31.3946V138.194Z" fill="#B2785E"/>
<rect width="56.0854" height="12.2927" transform="matrix(5.31276e-08 1 1 -3.59641e-08 202.724 177.377)" fill="#B2785E"/>
<rect width="21.5122" height="12.2927" transform="matrix(4.13958e-08 1 1 -4.61566e-08 202.724 233.462)" fill="#DDD9D9"/>
<rect width="7.68293" height="12.2927" transform="matrix(5.31276e-08 1 1 -3.59641e-08 202.724 169.694)" fill="#B2785E"/>
<rect width="19.9756" height="7.68293" transform="matrix(5.31276e-08 1 1 -3.59641e-08 205.029 150.487)" fill="#B2785E"/>
<rect width="6.91463" height="10.7561" transform="matrix(5.97685e-08 1 1 -3.19681e-08 203.492 144.34)" fill="#B2785E"/>
<path fill-rule="evenodd" clip-rule="evenodd" d="M220.395 138.194H188.127V139.745C189.391 139.841 190.523 140.408 191.349 141.271C191.427 141.268 191.505 141.267 191.584 141.267C193.383 141.267 195.044 141.856 196.385 142.851C198.392 143.05 200.217 143.867 201.667 145.109H220.395V138.194Z" fill="#B2785E"/>
<path d="M34.7361 254.901C34.7361 253.797 35.6316 252.901 36.7361 252.901H214.736C215.841 252.901 216.736 253.797 216.736 254.901H34.7361Z" fill="#B2785E"/>
<rect x="31.3947" y="137.426" width="189" height="0.768293" fill="#9F644B"/>
<rect x="36.7727" y="225.779" width="178.244" height="0.768293" fill="#9F644B"/>
<rect x="36.7727" y="233.462" width="178.244" height="0.768293" fill="#9F644B"/>
<rect x="76.9182" y="87.6697" width="23.575" height="4" transform="rotate(90 76.9182 87.6697)" fill="#A76E54"/>
<rect x="51.9182" y="87.6697" width="23.575" height="4" transform="rotate(90 51.9182 87.6697)" fill="#A76E54"/>
<rect x="101.918" y="87.6697" width="23.575" height="4" transform="rotate(90 101.918 87.6697)" fill="#A76E54"/>
<rect x="126.918" y="87.6697" width="23.575" height="4" transform="rotate(90 126.918 87.6697)" fill="#A76E54"/>
<rect x="151.918" y="86.9014" width="23.575" height="4" transform="rotate(90 151.918 86.9014)" fill="#A76E54"/>
<rect x="176.918" y="87.6697" width="23.575" height="4" transform="rotate(90 176.918 87.6697)" fill="#A76E54"/>
<rect x="201.918" y="87.6697" width="23.575" height="4" transform="rotate(90 201.918 87.6697)" fill="#A76E54"/>
<rect width="29.4855" height="4" transform="matrix(0.688162 0.725557 -0.688162 0.725557 23.5729 84.3)" fill="#A76E54"/>
<rect width="32.4339" height="4" transform="matrix(-0.688162 0.725557 0.688162 0.725557 228.427 82.1608)" fill="#A76E54"/>
<rect x="36.1098" y="103.621" width="179.78" height="12.2927" fill="#B2785E"/>
<rect x="65.9678" y="119.755" width="9.43" height="1.34714" fill="#595959"/>
<rect x="65.9678" y="126.491" width="9.43" height="1.34714" fill="#595959"/>
<rect x="67.9886" y="121.102" width="5.38857" height="5.38857" fill="#595959"/>
<rect x="121.285" y="119.755" width="9.43" height="1.34714" fill="#595959"/>
<rect x="121.285" y="126.491" width="9.43" height="1.34714" fill="#595959"/>
<rect x="123.306" y="121.102" width="5.38857" height="5.38857" fill="#595959"/>
<rect x="176.602" y="119.755" width="9.43" height="1.34714" fill="#595959"/>
<rect x="176.602" y="126.491" width="9.43" height="1.34714" fill="#595959"/>
<rect x="178.623" y="121.102" width="5.38857" height="5.38857" fill="#595959"/>
<g clip-path="url(#clip0_63_5877)">
<path d="M5.04785 76.8522H273.182V88.572H5.04785V76.8522Z" fill="#D85C5C"/>
<rect x="12.1843" y="77.6707" width="268.082" height="2" fill="#CC5858"/>
<rect x="12" y="88.572" width="240" height="2" fill="#FFE072"/>
</g>
<g clip-path="url(#clip1_63_5877)">
<path fill-rule="evenodd" clip-rule="evenodd" d="M117.853 40.6526H125.232H126.768H134.147L245.484 66.2314C245.484 66.2314 245.088 67.9955 246.277 70.2005C247.465 72.4056 249.05 71.9646 249.05 71.9646L251.824 66.6724C251.824 66.6724 252.22 72.4056 251.824 75.0517C251.428 77.6978 249.05 77.6978 249.05 77.6978L126.768 77.6978L125.232 77.6978L2.94964 77.6978C2.94964 77.6978 0.572317 77.6978 0.176098 75.0517C-0.220122 72.4056 0.176098 66.6724 0.176098 66.6724L2.94964 71.9646C2.94964 71.9646 4.53453 72.4056 5.72319 70.2005C6.91185 67.9955 6.51562 66.2314 6.51562 66.2314L117.853 40.6526Z" fill="#C48B65"/>
<path d="M130.432 44.4258L246.048 70.746" stroke="#AC7856" stroke-width="0.384146" stroke-linecap="round" stroke-linejoin="round"/>
<path d="M121.577 44.4258L6.15517 70.6892" stroke="#AC7856" stroke-width="0.384146" stroke-linecap="round" stroke-linejoin="round"/>
<path fill-rule="evenodd" clip-rule="evenodd" d="M8.91949 70.0627V91.2228C8.91949 91.3885 9.05381 91.5229 9.21949 91.5229C9.38518 91.5229 9.51949 91.3885 9.51949 91.2228V69.9271L8.91949 70.0627ZM15.0658 68.674V91.2228C15.0658 91.3885 15.2002 91.5229 15.3658 91.5229C15.5315 91.5229 15.6658 91.3885 15.6658 91.2228V68.5384L15.0658 68.674ZM21.2122 67.2853V91.2228C21.2122 91.3885 21.3465 91.5229 21.5122 91.5229C21.6779 91.5229 21.8122 91.3885 21.8122 91.2228V67.1497L21.2122 67.2853ZM27.3585 65.8966V91.2228C27.3585 91.3885 27.4928 91.5229 27.6585 91.5229C27.8242 91.5229 27.9585 91.3885 27.9585 91.2228V65.761L27.3585 65.8966ZM33.5049 64.5079V91.2228C33.5049 91.3885 33.6392 91.5229 33.8049 91.5229C33.9705 91.5229 34.1049 91.3885 34.1049 91.2228V64.3724L33.5049 64.5079ZM39.6512 63.1192V91.2228C39.6512 91.3885 39.7855 91.5229 39.9512 91.5229C40.1169 91.5229 40.2512 91.3885 40.2512 91.2228V62.9837L39.6512 63.1192ZM45.7975 61.7305V91.2228C45.7975 91.3885 45.9319 91.5229 46.0975 91.5229C46.2632 91.5229 46.3975 91.3885 46.3975 91.2228V61.595L45.7975 61.7305ZM51.9439 60.3418V91.2228C51.9439 91.3885 52.0782 91.5229 52.2439 91.5229C52.4096 91.5229 52.5439 91.3885 52.5439 91.2228V60.2063L51.9439 60.3418ZM58.0902 58.9532V91.2228C58.0902 91.3885 58.2245 91.5229 58.3902 91.5229C58.5559 91.5229 58.6902 91.3885 58.6902 91.2228V58.8176L58.0902 58.9532ZM64.2366 57.5645V91.2228C64.2366 91.3885 64.3709 91.5229 64.5366 91.5229C64.7023 91.5229 64.8366 91.3885 64.8366 91.2228V57.4289L64.2366 57.5645ZM70.3829 56.1758V91.2228C70.3829 91.3885 70.5172 91.5229 70.6829 91.5229C70.8486 91.5229 70.9829 91.3885 70.9829 91.2228V56.0402L70.3829 56.1758ZM76.5293 54.7871V91.2228C76.5293 91.3885 76.6636 91.5229 76.8293 91.5229C76.9949 91.5229 77.1293 91.3885 77.1293 91.2228V54.6515L76.5293 54.7871ZM82.6756 53.3984V91.2228C82.6756 91.3885 82.8099 91.5229 82.9756 91.5229C83.1413 91.5229 83.2756 91.3885 83.2756 91.2228V53.2628L82.6756 53.3984ZM88.8219 52.0097V91.2228C88.8219 91.3885 88.9563 91.5229 89.1219 91.5229C89.2876 91.5229 89.4219 91.3885 89.4219 91.2228V51.8741L88.8219 52.0097ZM94.9683 50.621V91.2228C94.9683 91.3885 95.1026 91.5229 95.2683 91.5229C95.434 91.5229 95.5683 91.3885 95.5683 91.2228V50.4854L94.9683 50.621ZM101.115 49.2323V91.2228C101.115 91.3885 101.249 91.5229 101.415 91.5229C101.58 91.5229 101.715 91.3885 101.715 91.2228V49.0968L101.115 49.2323ZM107.261 47.8436V91.2228C107.261 91.3885 107.395 91.5229 107.561 91.5229C107.727 91.5229 107.861 91.3885 107.861 91.2228V47.7081L107.261 47.8436ZM113.407 46.4549V91.2228C113.407 91.3885 113.542 91.5229 113.707 91.5229C113.873 91.5229 114.007 91.3885 114.007 91.2228V46.3194L113.407 46.4549ZM119.554 45.0662V91.2228C119.554 91.3885 119.688 91.5229 119.854 91.5229C120.019 91.5229 120.154 91.3885 120.154 91.2228V44.9307L119.554 45.0662ZM125.7 43.6776V91.2228C125.7 91.3885 125.834 91.5229 126 91.5229C126.166 91.5229 126.3 91.3885 126.3 91.2228V43.542L125.7 43.6776Z" fill="#AC7856"/>
<path fill-rule="evenodd" clip-rule="evenodd" d="M243.273 70.0627V91.2228C243.273 91.3885 243.138 91.5229 242.973 91.5229C242.807 91.5229 242.673 91.3885 242.673 91.2228V69.9271L243.273 70.0627ZM237.126 68.674V91.2228C237.126 91.3885 236.992 91.5229 236.826 91.5229C236.661 91.5229 236.526 91.3885 236.526 91.2228V68.5384L237.126 68.674ZM230.98 67.2853V91.2228C230.98 91.3885 230.846 91.5229 230.68 91.5229C230.514 91.5229 230.38 91.3885 230.38 91.2228V67.1497L230.98 67.2853ZM224.834 65.8966V91.2228C224.834 91.3885 224.699 91.5229 224.534 91.5229C224.368 91.5229 224.234 91.3885 224.234 91.2228V65.761L224.834 65.8966ZM218.687 64.5079V91.2228C218.687 91.3885 218.553 91.5229 218.387 91.5229C218.222 91.5229 218.087 91.3885 218.087 91.2228V64.3724L218.687 64.5079ZM212.541 63.1192V91.2228C212.541 91.3885 212.407 91.5229 212.241 91.5229C212.075 91.5229 211.941 91.3885 211.941 91.2228V62.9837L212.541 63.1192ZM206.395 61.7305V91.2228C206.395 91.3885 206.26 91.5229 206.095 91.5229C205.929 91.5229 205.795 91.3885 205.795 91.2228V61.595L206.395 61.7305ZM200.248 60.3418V91.2228C200.248 91.3885 200.114 91.5229 199.948 91.5229C199.783 91.5229 199.648 91.3885 199.648 91.2228V60.2063L200.248 60.3418ZM194.102 58.9532V91.2228C194.102 91.3885 193.968 91.5229 193.802 91.5229C193.636 91.5229 193.502 91.3885 193.502 91.2228V58.8176L194.102 58.9532ZM187.956 57.5645V91.2228C187.956 91.3885 187.821 91.5229 187.656 91.5229C187.49 91.5229 187.356 91.3885 187.356 91.2228V57.4289L187.956 57.5645ZM181.809 56.1758V91.2228C181.809 91.3885 181.675 91.5229 181.509 91.5229C181.343 91.5229 181.209 91.3885 181.209 91.2228V56.0402L181.809 56.1758ZM175.663 54.7871V91.2228C175.663 91.3885 175.529 91.5229 175.363 91.5229C175.197 91.5229 175.063 91.3885 175.063 91.2228V54.6515L175.663 54.7871ZM169.516 53.3984V91.2228C169.516 91.3885 169.382 91.5229 169.216 91.5229C169.051 91.5229 168.916 91.3885 168.916 91.2228V53.2628L169.516 53.3984ZM163.37 52.0097V91.2228C163.37 91.3885 163.236 91.5229 163.07 91.5229C162.904 91.5229 162.77 91.3885 162.77 91.2228V51.8741L163.37 52.0097ZM157.224 50.621V91.2228C157.224 91.3885 157.089 91.5229 156.924 91.5229C156.758 91.5229 156.624 91.3885 156.624 91.2228V50.4854L157.224 50.621ZM151.077 49.2323V91.2228C151.077 91.3885 150.943 91.5229 150.777 91.5229C150.612 91.5229 150.477 91.3885 150.477 91.2228V49.0968L151.077 49.2323ZM144.931 47.8436V91.2228C144.931 91.3885 144.797 91.5229 144.631 91.5229C144.465 91.5229 144.331 91.3885 144.331 91.2228V47.7081L144.931 47.8436ZM138.785 46.4549V91.2228C138.785 91.3885 138.65 91.5229 138.485 91.5229C138.319 91.5229 138.185 91.3885 138.185 91.2228V46.3194L138.785 46.4549ZM132.638 45.0662V91.2228C132.638 91.3885 132.504 91.5229 132.338 91.5229C132.173 91.5229 132.038 91.3885 132.038 91.2228V44.9307L132.638 45.0662ZM126.492 43.6776V91.2228C126.492 91.3885 126.358 91.5229 126.192 91.5229C126.026 91.5229 125.892 91.3885 125.892 91.2228V43.542L126.492 43.6776Z" fill="#AC7856"/>
<path d="M121.39 34.0293C120.622 36.5324 119.469 37.033 119.085 39.0354H126V10C126 10 125.232 11.5018 125.232 12.0024V13.5043C125.232 13.5043 124.848 14.0049 124.848 14.5055V15.5067C124.848 15.5067 124.463 16.0073 124.463 16.5079V17.5092C124.463 17.5092 123.695 18.5104 123.695 19.011C123.695 19.5116 124.079 20.5128 124.079 20.5128L123.695 21.514C123.695 21.514 122.543 22.0147 122.543 23.0159C122.543 24.0171 122.927 24.2173 122.927 25.0183C122.927 26.0195 122.158 31.5263 121.39 34.0293Z" fill="#FFE072"/>
<path d="M130.61 34.0293C131.378 36.5324 132.53 37.033 132.915 39.0354H126V10C126 10 126.768 11.5018 126.768 12.0024V13.5043C126.768 13.5043 127.152 14.0049 127.152 14.5055V15.5067C127.152 15.5067 127.537 16.0073 127.537 16.5079V17.5092C127.537 17.5092 128.305 18.5104 128.305 19.011C128.305 19.5116 127.921 20.5128 127.921 20.5128L128.305 21.514C128.305 21.514 129.457 22.0147 129.457 23.0159C129.457 24.0171 129.073 24.2173 129.073 25.0183C129.073 26.0195 129.841 31.5263 130.61 34.0293Z" fill="#FFE072"/>
<path d="M118.317 39.0354C118.317 38.1868 119.005 37.4988 119.854 37.4988H132.146C132.995 37.4988 133.683 38.1868 133.683 39.0354H118.317Z" fill="#E4C75F"/>
<rect x="118" y="38" width="16" height="6.24402" fill="#C48B65"/>
<path d="M118.148 40.778L121.775 44.4052" stroke="#AC7856" stroke-width="0.38" stroke-linecap="round" stroke-linejoin="round"/>
<path d="M121.807 44.4052L130.603 44.4052" stroke="#AC7856" stroke-width="0.38" stroke-linecap="round" stroke-linejoin="round"/>
<path d="M134 40.8577L130.432 44.4258" stroke="#AC7856" stroke-width="0.38" stroke-linecap="round" stroke-linejoin="round"/>
</g>
<defs>
<clipPath id="clip0_63_5877">
<rect width="228" height="17" fill="white" transform="translate(12 75.9014)"/>
</clipPath>
<clipPath id="clip1_63_5877">
<rect width="252" height="76.7" fill="white" transform="translate(0 1)"/>
</clipPath>
</defs>
</svg>
