<svg width="512" height="100" viewBox="0 0 512 100" fill="none" xmlns="http://www.w3.org/2000/svg">
<rect width="512" height="100" fill="white"/>
<path d="M149.544 77V74.888C150.6 74.824 151.352 74.6 151.8 74.216C152.28 73.832 152.584 73.256 152.712 72.488C152.84 71.72 152.904 70.744 152.904 69.56V49.592C152.904 48.888 152.92 48.216 152.952 47.576C152.984 46.904 153.016 46.328 153.048 45.848C152.504 45.88 151.912 45.912 151.272 45.944C150.632 45.976 150.056 46.008 149.544 46.04V43.4H161.352V45.512C160.328 45.544 159.576 45.768 159.096 46.184C158.616 46.568 158.312 47.144 158.184 47.912C158.056 48.648 157.992 49.624 157.992 50.84V58.664H173.88V49.592C173.88 48.888 173.896 48.216 173.928 47.576C173.96 46.904 173.992 46.328 174.024 45.848C173.48 45.88 172.888 45.912 172.248 45.944C171.608 45.976 171.032 46.008 170.52 46.04V43.4H182.328V45.512C181.304 45.544 180.552 45.768 180.072 46.184C179.592 46.568 179.288 47.144 179.16 47.912C179.032 48.648 178.968 49.624 178.968 50.84V70.568C178.968 71.432 178.952 72.216 178.92 72.92C178.92 73.592 178.888 74.136 178.824 74.552C179.368 74.488 179.96 74.456 180.6 74.456C181.24 74.424 181.816 74.392 182.328 74.36V77H170.52V74.888C171.576 74.824 172.328 74.6 172.776 74.216C173.256 73.832 173.56 73.256 173.688 72.488C173.816 71.72 173.88 70.744 173.88 69.56V61.16L157.992 61.304V70.568C157.992 71.432 157.976 72.216 157.944 72.92C157.944 73.592 157.912 74.136 157.848 74.552C158.392 74.488 158.984 74.456 159.624 74.456C160.296 74.424 160.872 74.392 161.352 74.36V77H149.544ZM197.334 77.768C195.094 77.768 193.078 77.256 191.286 76.232C189.526 75.176 188.134 73.704 187.11 71.816C186.086 69.896 185.574 67.64 185.574 65.048C185.574 62.808 186.07 60.712 187.062 58.76C188.086 56.808 189.51 55.24 191.334 54.056C193.158 52.84 195.27 52.232 197.67 52.232C199.014 52.232 200.278 52.44 201.462 52.856C202.678 53.272 203.75 53.928 204.678 54.824C205.638 55.688 206.39 56.824 206.934 58.232C207.478 59.608 207.75 61.288 207.75 63.272L191.238 63.56C191.238 65.736 191.478 67.672 191.958 69.368C192.47 71.064 193.286 72.376 194.406 73.304C195.526 74.232 196.982 74.696 198.774 74.696C199.638 74.696 200.55 74.552 201.51 74.264C202.502 73.944 203.43 73.496 204.294 72.92C205.19 72.344 205.942 71.656 206.55 70.856L208.038 72.152C207.078 73.592 205.974 74.728 204.726 75.56C203.478 76.36 202.198 76.92 200.886 77.24C199.606 77.592 198.422 77.768 197.334 77.768ZM191.43 61.064H202.518C202.518 59.848 202.342 58.76 201.99 57.8C201.67 56.808 201.158 56.024 200.454 55.448C199.75 54.872 198.854 54.584 197.766 54.584C196.07 54.584 194.678 55.128 193.59 56.216C192.502 57.272 191.782 58.888 191.43 61.064ZM211.783 74.984C212.743 74.984 213.415 74.76 213.799 74.312C214.183 73.864 214.407 73.24 214.471 72.44C214.567 71.64 214.615 70.712 214.615 69.656V59.672C214.615 59.16 214.615 58.616 214.615 58.04C214.647 57.432 214.711 56.84 214.807 56.264C214.263 56.296 213.687 56.328 213.079 56.36C212.471 56.36 211.911 56.376 211.399 56.408V53.864H213.031C214.375 53.864 215.399 53.72 216.103 53.432C216.807 53.144 217.319 52.84 217.639 52.52H219.367C219.431 52.968 219.479 53.592 219.511 54.392C219.543 55.192 219.575 56.088 219.607 57.08C220.215 56.184 220.919 55.384 221.719 54.68C222.519 53.944 223.383 53.352 224.311 52.904C225.271 52.456 226.263 52.232 227.287 52.232C228.279 52.232 229.127 52.504 229.831 53.048C230.567 53.56 230.935 54.408 230.935 55.592C230.935 55.912 230.839 56.28 230.647 56.696C230.487 57.112 230.199 57.48 229.783 57.8C229.399 58.088 228.871 58.232 228.199 58.232C227.527 58.2 226.935 57.944 226.423 57.464C225.943 56.984 225.719 56.328 225.751 55.496C224.983 55.496 224.215 55.736 223.447 56.216C222.679 56.664 221.959 57.272 221.287 58.04C220.647 58.808 220.103 59.64 219.655 60.536V71.048C219.655 71.624 219.639 72.216 219.607 72.824C219.607 73.4 219.559 73.992 219.463 74.6C219.975 74.568 220.503 74.552 221.047 74.552C221.591 74.52 222.087 74.488 222.535 74.456V77H211.783V74.984ZM233.345 74.984C234.305 74.984 234.977 74.76 235.361 74.312C235.745 73.864 235.969 73.24 236.033 72.44C236.129 71.64 236.177 70.712 236.177 69.656V59.72C236.177 59.176 236.193 58.632 236.225 58.088C236.257 57.512 236.305 56.904 236.369 56.264C235.825 56.296 235.249 56.328 234.641 56.36C234.033 56.36 233.473 56.376 232.961 56.408V53.864C234.401 53.864 235.537 53.8 236.369 53.672C237.233 53.512 237.889 53.336 238.337 53.144C238.817 52.952 239.169 52.744 239.393 52.52H241.217V71.048C241.217 71.624 241.201 72.216 241.169 72.824C241.137 73.4 241.089 73.992 241.025 74.6C241.537 74.568 242.049 74.552 242.561 74.552C243.105 74.52 243.601 74.488 244.049 74.456V77H233.345V74.984ZM238.481 48.104C237.649 48.104 236.945 47.8 236.369 47.192C235.793 46.552 235.505 45.784 235.505 44.888C235.505 43.992 235.809 43.24 236.417 42.632C237.025 41.992 237.713 41.672 238.481 41.672C239.313 41.672 240.001 41.992 240.545 42.632C241.121 43.24 241.409 43.992 241.409 44.888C241.409 45.784 241.121 46.552 240.545 47.192C240.001 47.8 239.313 48.104 238.481 48.104ZM257.138 77.768C256.338 77.768 255.538 77.656 254.738 77.432C253.938 77.24 253.186 76.84 252.482 76.232C251.81 75.592 251.282 74.68 250.898 73.496C250.514 72.312 250.322 70.744 250.322 68.792L250.418 55.688H246.866V53C247.73 52.968 248.61 52.648 249.506 52.04C250.402 51.432 251.186 50.616 251.858 49.592C252.53 48.568 252.994 47.464 253.25 46.28H255.506V53H262.898V55.496L255.506 55.592L255.41 68.408C255.41 69.624 255.506 70.696 255.698 71.624C255.922 72.52 256.274 73.224 256.754 73.736C257.266 74.216 257.954 74.456 258.818 74.456C259.554 74.456 260.306 74.232 261.074 73.784C261.874 73.336 262.626 72.6 263.33 71.576L264.962 73.016C264.194 74.136 263.426 75.016 262.658 75.656C261.89 76.296 261.154 76.76 260.45 77.048C259.746 77.368 259.106 77.56 258.53 77.624C257.954 77.72 257.49 77.768 257.138 77.768ZM281.162 77C281.098 76.488 281.05 76.04 281.018 75.656C280.986 75.272 280.938 74.872 280.874 74.456C279.786 75.544 278.618 76.376 277.37 76.952C276.122 77.496 274.826 77.768 273.482 77.768C271.178 77.768 269.434 77.208 268.25 76.088C267.098 74.936 266.521 73.512 266.521 71.816C266.521 70.344 266.954 69.064 267.818 67.976C268.682 66.888 269.818 66.008 271.226 65.336C272.634 64.632 274.17 64.12 275.834 63.8C277.498 63.448 279.13 63.272 280.73 63.272V60.44C280.73 59.416 280.634 58.472 280.442 57.608C280.25 56.712 279.85 55.992 279.242 55.448C278.666 54.872 277.754 54.584 276.506 54.584C275.674 54.552 274.842 54.712 274.01 55.064C273.178 55.384 272.538 55.928 272.09 56.696C272.346 56.952 272.506 57.256 272.57 57.608C272.666 57.928 272.714 58.232 272.714 58.52C272.714 58.968 272.522 59.48 272.138 60.056C271.754 60.6 271.098 60.856 270.17 60.824C269.402 60.824 268.81 60.568 268.394 60.056C268.01 59.512 267.818 58.888 267.818 58.184C267.818 57.032 268.234 56.008 269.066 55.112C269.93 54.216 271.098 53.512 272.57 53C274.042 52.488 275.69 52.232 277.514 52.232C280.266 52.232 282.314 52.952 283.658 54.392C285.034 55.832 285.722 58.104 285.722 61.208C285.722 62.36 285.722 63.464 285.722 64.52C285.722 65.576 285.706 66.632 285.674 67.688C285.674 68.744 285.674 69.864 285.674 71.048C285.674 71.528 285.658 72.072 285.626 72.68C285.594 73.288 285.546 73.928 285.482 74.6C286.026 74.568 286.586 74.536 287.162 74.504C287.738 74.472 288.282 74.456 288.794 74.456V77H281.162ZM280.73 65.48C279.706 65.544 278.65 65.688 277.562 65.912C276.506 66.136 275.546 66.472 274.682 66.92C273.818 67.368 273.114 67.944 272.57 68.648C272.058 69.352 271.802 70.2 271.802 71.192C271.866 72.28 272.218 73.08 272.858 73.592C273.53 74.104 274.314 74.36 275.21 74.36C276.33 74.36 277.322 74.152 278.186 73.736C279.05 73.288 279.898 72.68 280.73 71.912C280.698 71.56 280.682 71.208 280.682 70.856C280.682 70.472 280.682 70.072 280.682 69.656C280.682 69.368 280.682 68.84 280.682 68.072C280.714 67.272 280.73 66.408 280.73 65.48ZM303.028 90.008C300.212 90.008 297.94 89.688 296.212 89.048C294.516 88.44 293.284 87.64 292.516 86.648C291.78 85.688 291.412 84.664 291.412 83.576C291.412 82.712 291.604 81.912 291.988 81.176C292.404 80.44 292.948 79.784 293.62 79.208C294.292 78.664 295.044 78.232 295.876 77.912C294.756 77.56 293.908 77.064 293.332 76.424C292.756 75.752 292.468 74.936 292.468 73.976C292.468 72.952 292.868 71.944 293.668 70.952C294.5 69.96 295.684 69.288 297.22 68.936C295.78 68.296 294.628 67.368 293.764 66.152C292.9 64.936 292.452 63.496 292.42 61.832C292.388 59.912 292.868 58.232 293.86 56.792C294.884 55.352 296.18 54.232 297.748 53.432C299.348 52.632 301.012 52.232 302.74 52.232C303.732 52.232 304.756 52.376 305.812 52.664C306.868 52.92 307.828 53.336 308.692 53.912C309.044 52.984 309.508 52.136 310.084 51.368C310.66 50.6 311.332 49.992 312.1 49.544C312.9 49.096 313.732 48.872 314.596 48.872C315.524 48.872 316.228 49.112 316.708 49.592C317.188 50.072 317.428 50.712 317.428 51.512C317.428 51.768 317.348 52.088 317.188 52.472C317.06 52.824 316.82 53.128 316.468 53.384C316.116 53.64 315.636 53.768 315.028 53.768C314.516 53.768 314.052 53.608 313.636 53.288C313.252 52.936 313.012 52.52 312.916 52.04C312.244 52.168 311.684 52.568 311.236 53.24C310.82 53.88 310.548 54.536 310.42 55.208C311.252 55.944 311.892 56.824 312.34 57.848C312.82 58.84 313.06 59.912 313.06 61.064C313.06 62.888 312.564 64.504 311.572 65.912C310.612 67.32 309.348 68.424 307.78 69.224C306.212 70.024 304.516 70.424 302.692 70.424C302.148 70.424 301.636 70.392 301.156 70.328C300.676 70.232 300.148 70.184 299.572 70.184C298.548 70.184 297.7 70.424 297.028 70.904C296.388 71.384 296.148 71.96 296.308 72.632C296.468 73.336 297.14 73.8 298.324 74.024C299.508 74.248 301.22 74.408 303.46 74.504C305.924 74.6 308.036 74.904 309.796 75.416C311.588 75.896 312.964 76.648 313.924 77.672C314.916 78.696 315.412 80.088 315.412 81.848C315.412 83.16 315.044 84.328 314.308 85.352C313.604 86.376 312.644 87.224 311.428 87.896C310.244 88.6 308.916 89.128 307.444 89.48C305.972 89.832 304.5 90.008 303.028 90.008ZM303.46 87.656C306.052 87.656 308.052 87.176 309.46 86.216C310.9 85.256 311.62 84.168 311.62 82.952C311.62 81.928 311.268 81.128 310.564 80.552C309.86 80.008 308.868 79.608 307.588 79.352C306.34 79.128 304.868 79 303.172 78.968C302.34 78.904 301.492 78.856 300.628 78.824C299.764 78.792 298.964 78.712 298.228 78.584C297.492 79.096 296.916 79.72 296.5 80.456C296.116 81.192 295.908 81.96 295.876 82.76C295.876 84.232 296.564 85.416 297.94 86.312C299.316 87.208 301.156 87.656 303.46 87.656ZM302.836 68.168C303.924 68.168 304.82 67.896 305.524 67.352C306.26 66.776 306.804 66.024 307.156 65.096C307.54 64.136 307.732 63.096 307.732 61.976C307.732 60.664 307.54 59.432 307.156 58.28C306.772 57.128 306.212 56.2 305.476 55.496C304.74 54.792 303.796 54.44 302.644 54.44C301.076 54.44 299.86 55.064 298.996 56.312C298.132 57.56 297.7 59.064 297.7 60.824C297.7 62.232 297.892 63.496 298.276 64.616C298.692 65.704 299.284 66.568 300.052 67.208C300.82 67.848 301.748 68.168 302.836 68.168ZM329.709 77.768C327.469 77.768 325.453 77.256 323.661 76.232C321.901 75.176 320.509 73.704 319.485 71.816C318.461 69.896 317.949 67.64 317.949 65.048C317.949 62.808 318.445 60.712 319.437 58.76C320.461 56.808 321.885 55.24 323.709 54.056C325.533 52.84 327.645 52.232 330.045 52.232C331.389 52.232 332.653 52.44 333.837 52.856C335.053 53.272 336.125 53.928 337.053 54.824C338.013 55.688 338.765 56.824 339.309 58.232C339.853 59.608 340.125 61.288 340.125 63.272L323.613 63.56C323.613 65.736 323.853 67.672 324.333 69.368C324.845 71.064 325.661 72.376 326.781 73.304C327.901 74.232 329.357 74.696 331.149 74.696C332.013 74.696 332.925 74.552 333.885 74.264C334.877 73.944 335.805 73.496 336.669 72.92C337.565 72.344 338.317 71.656 338.925 70.856L340.413 72.152C339.453 73.592 338.349 74.728 337.101 75.56C335.853 76.36 334.573 76.92 333.261 77.24C331.981 77.592 330.797 77.768 329.709 77.768ZM323.805 61.064H334.893C334.893 59.848 334.717 58.76 334.365 57.8C334.045 56.808 333.533 56.024 332.829 55.448C332.125 54.872 331.229 54.584 330.141 54.584C328.445 54.584 327.053 55.128 325.965 56.216C324.877 57.272 324.157 58.888 323.805 61.064ZM343.888 77V74.888C344.944 74.824 345.696 74.6 346.144 74.216C346.624 73.832 346.928 73.256 347.056 72.488C347.184 71.72 347.248 70.744 347.248 69.56V49.592C347.248 48.888 347.264 48.216 347.296 47.576C347.328 46.904 347.36 46.328 347.392 45.848C346.848 45.88 346.256 45.912 345.616 45.944C344.976 45.976 344.4 46.008 343.888 46.04V43.4H355.696V45.512C354.672 45.544 353.92 45.768 353.44 46.184C352.96 46.568 352.656 47.144 352.528 47.912C352.4 48.648 352.336 49.624 352.336 50.84V58.52H355.888L361.12 50.12C361.6 49.384 362.144 48.6 362.752 47.768C363.36 46.936 363.936 46.28 364.48 45.8C364 45.832 363.488 45.864 362.944 45.896C362.432 45.896 361.968 45.912 361.552 45.944V43.4H372.352V45.512C371.2 45.576 370.128 45.768 369.136 46.088C368.176 46.408 367.232 46.968 366.304 47.768C365.376 48.568 364.4 49.8 363.376 51.464L358.72 58.904C359.552 59.416 360.24 59.992 360.784 60.632C361.328 61.272 361.856 61.928 362.368 62.6L367.6 69.656C368.624 71.032 369.504 72.104 370.24 72.872C371.008 73.64 371.728 74.168 372.4 74.456C373.072 74.744 373.744 74.888 374.416 74.888V77H368.032C367.744 77 367.328 76.76 366.784 76.28C366.24 75.8 365.648 75.192 365.008 74.456C364.4 73.72 363.808 72.984 363.232 72.248L357.808 64.76C357.264 64.024 356.704 63.304 356.128 62.6C355.584 61.896 355.04 61.384 354.496 61.064H352.336V70.568C352.336 71.432 352.32 72.216 352.288 72.92C352.288 73.592 352.256 74.136 352.192 74.552C352.736 74.488 353.328 74.456 353.968 74.456C354.64 74.424 355.216 74.392 355.696 74.36V77H343.888ZM386.019 77.768C384.227 77.768 382.739 77.432 381.555 76.76C380.403 76.088 379.539 74.984 378.963 73.448C378.387 71.88 378.099 69.816 378.099 67.256V59.72C378.099 59.176 378.099 58.616 378.099 58.04C378.131 57.432 378.195 56.84 378.291 56.264C377.747 56.296 377.171 56.328 376.563 56.36C375.955 56.36 375.411 56.376 374.931 56.408V53.864H376.083C377.683 53.864 378.883 53.72 379.683 53.432C380.483 53.144 381.043 52.84 381.363 52.52H383.187V67.16C383.187 69.688 383.539 71.576 384.243 72.824C384.947 74.072 386.131 74.68 387.795 74.648C388.883 74.648 389.923 74.328 390.915 73.688C391.939 73.048 392.771 72.296 393.411 71.432V60.056C393.411 59.352 393.427 58.696 393.459 58.088C393.491 57.448 393.555 56.84 393.651 56.264C393.075 56.296 392.483 56.328 391.875 56.36C391.267 56.36 390.707 56.376 390.195 56.408V53.864H391.587C392.995 53.864 394.099 53.72 394.899 53.432C395.699 53.144 396.275 52.84 396.627 52.52H398.451L398.403 70.184C398.403 70.696 398.387 71.4 398.355 72.296C398.323 73.16 398.275 73.928 398.211 74.6C398.755 74.568 399.315 74.536 399.891 74.504C400.499 74.472 401.059 74.456 401.571 74.456V77H393.939C393.875 76.488 393.811 76.008 393.747 75.56C393.715 75.112 393.667 74.68 393.603 74.264C392.611 75.192 391.459 76.008 390.147 76.712C388.835 77.416 387.459 77.768 386.019 77.768ZM404.908 77V74.984C405.868 74.984 406.54 74.76 406.924 74.312C407.308 73.864 407.532 73.24 407.596 72.44C407.692 71.64 407.74 70.712 407.74 69.656L407.788 59.672C407.788 59.16 407.788 58.616 407.788 58.04C407.82 57.432 407.884 56.84 407.98 56.264C407.404 56.296 406.812 56.328 406.204 56.36C405.628 56.36 405.084 56.376 404.572 56.408V53.864C406.012 53.864 407.132 53.8 407.932 53.672C408.764 53.512 409.388 53.336 409.804 53.144C410.252 52.952 410.588 52.744 410.812 52.52H412.54C412.572 52.808 412.588 53.08 412.588 53.336C412.62 53.592 412.636 53.864 412.636 54.152C412.668 54.44 412.7 54.808 412.732 55.256C413.436 54.68 414.204 54.168 415.036 53.72C415.868 53.272 416.732 52.92 417.628 52.664C418.556 52.376 419.436 52.232 420.268 52.232C423.116 52.232 425.164 53.096 426.412 54.824C427.692 56.552 428.332 59.256 428.332 62.936V71.048C428.332 71.624 428.316 72.216 428.284 72.824C428.252 73.4 428.204 73.992 428.14 74.6C428.652 74.568 429.164 74.552 429.676 74.552C430.22 74.52 430.716 74.488 431.164 74.456V77H420.46V74.984C421.42 74.984 422.092 74.76 422.476 74.312C422.86 73.864 423.084 73.24 423.148 72.44C423.244 71.64 423.292 70.712 423.292 69.656V62.936C423.26 60.408 422.844 58.504 422.044 57.224C421.276 55.944 420.028 55.32 418.3 55.352C417.276 55.352 416.268 55.608 415.276 56.12C414.284 56.632 413.452 57.256 412.78 57.992C412.78 58.312 412.78 58.664 412.78 59.048C412.78 59.4 412.78 59.768 412.78 60.152V71.048C412.78 71.624 412.764 72.216 412.732 72.824C412.7 73.4 412.652 73.992 412.588 74.6C413.1 74.568 413.612 74.552 414.124 74.552C414.668 74.52 415.164 74.488 415.612 74.456V77H404.908ZM432.282 90.008C430.81 90.008 429.738 89.688 429.066 89.048C428.362 88.408 428.01 87.688 428.01 86.888C428.01 86.248 428.218 85.656 428.634 85.112C429.05 84.6 429.642 84.328 430.41 84.296C431.21 84.264 431.802 84.504 432.186 85.016C432.57 85.528 432.762 86.056 432.762 86.6C432.762 86.696 432.762 86.792 432.762 86.888C432.762 86.984 432.746 87.08 432.714 87.176C433.066 87.336 433.434 87.416 433.818 87.416C434.65 87.416 435.258 87.128 435.642 86.552C436.058 85.976 436.33 85.24 436.458 84.344C436.618 83.48 436.698 82.616 436.698 81.752V59.72C436.698 59.176 436.714 58.632 436.746 58.088C436.778 57.512 436.826 56.904 436.89 56.264C436.314 56.296 435.722 56.328 435.114 56.36C434.538 56.36 433.994 56.376 433.482 56.408V53.864C434.922 53.864 436.074 53.8 436.938 53.672C437.802 53.512 438.458 53.336 438.906 53.144C439.386 52.952 439.738 52.744 439.962 52.52H441.738V77.048C441.738 80.024 441.322 82.472 440.49 84.392C439.658 86.312 438.522 87.72 437.082 88.616C435.674 89.544 434.074 90.008 432.282 90.008ZM439.098 48.104C438.266 48.104 437.562 47.8 436.986 47.192C436.41 46.552 436.122 45.784 436.122 44.888C436.122 43.992 436.426 43.24 437.034 42.632C437.642 41.992 438.33 41.672 439.098 41.672C439.93 41.672 440.618 41.992 441.162 42.632C441.738 43.24 442.026 43.992 442.026 44.888C442.026 45.784 441.738 46.552 441.162 47.192C440.618 47.8 439.93 48.104 439.098 48.104ZM459.802 77C459.738 76.488 459.69 76.04 459.658 75.656C459.626 75.272 459.578 74.872 459.514 74.456C458.426 75.544 457.258 76.376 456.01 76.952C454.762 77.496 453.466 77.768 452.122 77.768C449.818 77.768 448.074 77.208 446.89 76.088C445.738 74.936 445.162 73.512 445.162 71.816C445.162 70.344 445.594 69.064 446.458 67.976C447.322 66.888 448.458 66.008 449.866 65.336C451.274 64.632 452.81 64.12 454.474 63.8C456.138 63.448 457.77 63.272 459.37 63.272V60.44C459.37 59.416 459.274 58.472 459.082 57.608C458.89 56.712 458.49 55.992 457.882 55.448C457.306 54.872 456.394 54.584 455.146 54.584C454.314 54.552 453.482 54.712 452.65 55.064C451.818 55.384 451.178 55.928 450.73 56.696C450.986 56.952 451.146 57.256 451.21 57.608C451.306 57.928 451.354 58.232 451.354 58.52C451.354 58.968 451.162 59.48 450.778 60.056C450.394 60.6 449.738 60.856 448.81 60.824C448.042 60.824 447.45 60.568 447.034 60.056C446.65 59.512 446.458 58.888 446.458 58.184C446.458 57.032 446.874 56.008 447.706 55.112C448.57 54.216 449.738 53.512 451.21 53C452.682 52.488 454.33 52.232 456.154 52.232C458.906 52.232 460.954 52.952 462.298 54.392C463.674 55.832 464.362 58.104 464.362 61.208C464.362 62.36 464.362 63.464 464.362 64.52C464.362 65.576 464.346 66.632 464.314 67.688C464.314 68.744 464.314 69.864 464.314 71.048C464.314 71.528 464.298 72.072 464.266 72.68C464.234 73.288 464.186 73.928 464.122 74.6C464.666 74.568 465.226 74.536 465.802 74.504C466.378 74.472 466.922 74.456 467.434 74.456V77H459.802ZM459.37 65.48C458.346 65.544 457.29 65.688 456.202 65.912C455.146 66.136 454.186 66.472 453.322 66.92C452.458 67.368 451.754 67.944 451.21 68.648C450.698 69.352 450.442 70.2 450.442 71.192C450.506 72.28 450.858 73.08 451.498 73.592C452.17 74.104 452.954 74.36 453.85 74.36C454.97 74.36 455.962 74.152 456.826 73.736C457.69 73.288 458.538 72.68 459.37 71.912C459.338 71.56 459.322 71.208 459.322 70.856C459.322 70.472 459.322 70.072 459.322 69.656C459.322 69.368 459.322 68.84 459.322 68.072C459.354 67.272 459.37 66.408 459.37 65.48Z" fill="#61657A"/>
<rect width="56.9026" height="0.24527" transform="matrix(1 0 0 -1 54.7394 84.0211)" fill="#927153"/>
<rect x="54.7394" y="81.3231" width="56.9026" height="2.4527" fill="#B2785E"/>
<rect x="54.9846" y="83.5306" width="56.1668" height="6.37701" fill="#C48B65"/>
<rect x="55.0182" y="35.4576" width="56.4121" height="15.6973" fill="#C48B65"/>
<rect x="54.9846" y="50.6644" width="56.4121" height="0.49054" fill="#AC7856"/>
<rect x="54.9846" y="41.5894" width="56.4121" height="0.49054" fill="#AC7856"/>
<rect x="54.9846" y="46.0043" width="56.4121" height="0.49054" fill="#AC7856"/>
<rect x="54.9846" y="37.7625" width="56.4121" height="0.49054" fill="#AC7856"/>
<rect x="53.0562" y="51.155" width="60.3364" height="1.96216" fill="#B2785E"/>
<rect x="93.875" y="65.6575" width="17.8335" height="3.87056" transform="rotate(90 93.875 65.6575)" fill="#B2785E"/>
<rect x="93.8801" y="83.5306" width="6.86755" height="3.92432" transform="rotate(90 93.8801 83.5306)" fill="#DDD9D9"/>
<rect x="93.875" y="63.1099" width="2.54764" height="3.87056" transform="rotate(90 93.875 63.1099)" fill="#B2785E"/>
<rect x="93.2299" y="57.0592" width="6.3691" height="2.58037" transform="rotate(90 93.2299 57.0592)" fill="#B2785E"/>
<rect x="93.6599" y="55.1485" width="2.22919" height="3.4405" transform="rotate(90 93.6599 55.1485)" fill="#B2785E"/>
<path fill-rule="evenodd" clip-rule="evenodd" d="M91.9179 53.1171H85.2957V53.6123C85.6992 53.643 86.0608 53.8239 86.3245 54.0992C86.3494 54.0985 86.3744 54.0982 86.3995 54.0982C86.9737 54.0982 87.5041 54.2861 87.9323 54.6039C88.5729 54.6674 89.1554 54.9282 89.6184 55.3245H91.9179V53.1171Z" fill="#B2785E"/>
<path fill-rule="evenodd" clip-rule="evenodd" d="M91.918 53.1171H98.5403V53.6123C98.1368 53.643 97.7752 53.8239 97.5115 54.0992C97.4866 54.0985 97.4616 54.0982 97.4365 54.0982C96.8623 54.0982 96.332 54.2861 95.9037 54.6039C95.2631 54.6674 94.6806 54.9282 94.2176 55.3245H91.918V53.1171Z" fill="#B2785E"/>
<rect x="76.2156" y="65.6575" width="17.8335" height="3.87056" transform="rotate(90 76.2156 65.6575)" fill="#B2785E"/>
<rect x="76.1492" y="83.5306" width="6.86755" height="3.92432" transform="rotate(90 76.1492 83.5306)" fill="#DDD9D9"/>
<rect x="76.2156" y="63.1099" width="2.54764" height="3.87056" transform="rotate(90 76.2156 63.1099)" fill="#B2785E"/>
<rect x="75.5704" y="57.0592" width="6.3691" height="2.58037" transform="rotate(90 75.5704 57.0592)" fill="#B2785E"/>
<rect x="76.0005" y="55.1485" width="2.22919" height="3.4405" transform="rotate(90 76.0005 55.1485)" fill="#B2785E"/>
<path fill-rule="evenodd" clip-rule="evenodd" d="M74.1871 53.1171H67.5648V53.6123C67.9683 53.643 68.3298 53.8239 68.5936 54.0992C68.6185 54.0985 68.6434 54.0982 68.6685 54.0982C69.2427 54.0982 69.7731 54.2861 70.2013 54.6039C70.8419 54.6674 71.4244 54.9282 71.8875 55.3245H74.1871V53.1171Z" fill="#B2785E"/>
<path fill-rule="evenodd" clip-rule="evenodd" d="M74.187 53.1171H80.8093V53.6123C80.4058 53.643 80.0443 53.8239 79.7805 54.0992C79.7556 54.0985 79.7307 54.0982 79.7056 54.0982C79.1313 54.0982 78.601 54.2861 78.1727 54.6039C77.5322 54.6674 76.9496 54.9282 76.4866 55.3245H74.187V53.1171Z" fill="#B2785E"/>
<rect x="58.6099" y="65.6259" width="17.8335" height="3.87056" transform="rotate(90 58.6099 65.6259)" fill="#B2785E"/>
<rect x="58.6637" y="83.5306" width="6.86755" height="3.92432" transform="rotate(90 58.6637 83.5306)" fill="#DDD9D9"/>
<rect x="58.6099" y="63.1732" width="2.54764" height="3.87056" transform="rotate(90 58.6099 63.1732)" fill="#B2785E"/>
<rect x="57.9279" y="57.0414" width="6.37701" height="2.4527" transform="rotate(90 57.9279 57.0414)" fill="#B2785E"/>
<rect x="58.4185" y="55.0793" width="2.20743" height="3.43378" transform="rotate(90 58.4185 55.0793)" fill="#B2785E"/>
<path fill-rule="evenodd" clip-rule="evenodd" d="M53.0225 53.1171H63.3239V53.6123C62.9203 53.643 62.5587 53.8239 62.295 54.0992C62.2701 54.0985 62.2452 54.0982 62.2201 54.0982C61.6459 54.0982 61.1155 54.2861 60.6873 54.6039C60.0467 54.6674 59.4642 54.9282 59.0011 55.3245H53.0225V53.1171Z" fill="#B2785E"/>
<rect width="17.9047" height="3.92432" transform="matrix(5.31276e-08 1 1 -3.59641e-08 107.718 65.6259)" fill="#B2785E"/>
<rect width="6.86755" height="3.92432" transform="matrix(4.13958e-08 1 1 -4.61566e-08 107.718 83.5306)" fill="#DDD9D9"/>
<rect width="2.4527" height="3.92432" transform="matrix(5.31276e-08 1 1 -3.59641e-08 107.718 63.1732)" fill="#B2785E"/>
<rect width="6.37701" height="2.4527" transform="matrix(5.31276e-08 1 1 -3.59641e-08 108.453 57.0414)" fill="#B2785E"/>
<rect width="2.20743" height="3.43378" transform="matrix(5.97685e-08 1 1 -3.19681e-08 107.963 55.0793)" fill="#B2785E"/>
<path fill-rule="evenodd" clip-rule="evenodd" d="M113.359 53.1171H103.057V53.6123C103.461 53.643 103.823 53.8239 104.086 54.0992C104.111 54.0985 104.136 54.0982 104.161 54.0982C104.735 54.0982 105.266 54.2861 105.694 54.6039C106.335 54.6674 106.917 54.9282 107.38 55.3245H113.359V53.1171Z" fill="#B2785E"/>
<path d="M54.0891 90.3747C54.0891 90.0221 54.375 89.7363 54.7276 89.7363H111.552C111.905 89.7363 112.191 90.0221 112.191 90.3747V90.3747H54.0891V90.3747Z" fill="#B2785E"/>
<rect x="53.0225" y="52.8718" width="60.3364" height="0.24527" fill="#9F644B"/>
<rect x="54.7394" y="81.0779" width="56.9026" height="0.24527" fill="#9F644B"/>
<rect x="54.7394" y="83.5306" width="56.9026" height="0.24527" fill="#9F644B"/>
<rect x="67.5554" y="36.9877" width="7.52609" height="1.27696" transform="rotate(90 67.5554 36.9877)" fill="#A76E54"/>
<rect x="59.5743" y="36.9877" width="7.52609" height="1.27696" transform="rotate(90 59.5743 36.9877)" fill="#A76E54"/>
<rect x="75.5364" y="36.9877" width="7.52609" height="1.27696" transform="rotate(90 75.5364 36.9877)" fill="#A76E54"/>
<rect x="83.5173" y="36.9877" width="7.52609" height="1.27696" transform="rotate(90 83.5173 36.9877)" fill="#A76E54"/>
<rect x="91.4984" y="36.7424" width="7.52609" height="1.27696" transform="rotate(90 91.4984 36.7424)" fill="#A76E54"/>
<rect x="99.4794" y="36.9877" width="7.52609" height="1.27696" transform="rotate(90 99.4794 36.9877)" fill="#A76E54"/>
<rect x="107.46" y="36.9877" width="7.52609" height="1.27696" transform="rotate(90 107.46 36.9877)" fill="#A76E54"/>
<rect width="9.41297" height="1.27696" transform="matrix(0.688162 0.725557 -0.688162 0.725557 50.5254 35.9119)" fill="#A76E54"/>
<rect width="10.3542" height="1.27696" transform="matrix(-0.688162 0.725557 0.688162 0.725557 115.923 35.229)" fill="#A76E54"/>
<rect x="54.5277" y="42.08" width="57.3931" height="3.92432" fill="#B2785E"/>
<rect x="64.0596" y="47.2306" width="3.01043" height="0.430062" fill="#595959"/>
<rect x="64.0596" y="49.3809" width="3.01043" height="0.430062" fill="#595959"/>
<rect x="64.7047" y="47.6607" width="1.72025" height="1.72025" fill="#595959"/>
<rect x="81.719" y="47.2306" width="3.01043" height="0.430062" fill="#595959"/>
<rect x="81.719" y="49.3809" width="3.01043" height="0.430062" fill="#595959"/>
<rect x="82.3641" y="47.6607" width="1.72025" height="1.72025" fill="#595959"/>
<rect x="99.3784" y="47.2307" width="3.01043" height="0.430062" fill="#595959"/>
<rect x="99.3784" y="49.3809" width="3.01043" height="0.430062" fill="#595959"/>
<rect x="100.024" y="47.6607" width="1.72025" height="1.72025" fill="#595959"/>
<g clip-path="url(#clip0_195_1903)">
<path d="M44.6115 33.5343H130.211V37.2757H44.6115V33.5343Z" fill="#D85C5C"/>
<rect x="46.8898" y="33.7956" width="85.5824" height="0.63848" fill="#CC5858"/>
<rect x="46.8309" y="37.2758" width="76.6176" height="0.63848" fill="#FFE072"/>
</g>
<g clip-path="url(#clip1_195_1903)">
<path fill-rule="evenodd" clip-rule="evenodd" d="M80.6235 21.9779H82.979H83.4695H85.825L121.368 30.1437C121.368 30.1437 121.242 30.7069 121.621 31.4108C122.001 32.1148 122.507 31.974 122.507 31.974L123.392 30.2845C123.392 30.2845 123.519 32.1148 123.392 32.9595C123.266 33.8042 122.507 33.8042 122.507 33.8042H83.4695H82.979H43.9417C43.9417 33.8042 43.1827 33.8042 43.0562 32.9595C42.9297 32.1148 43.0562 30.2845 43.0562 30.2845L43.9417 31.974C43.9417 31.974 44.4476 32.1148 44.8271 31.4108C45.2065 30.7069 45.0801 30.1437 45.0801 30.1437L80.6235 21.9779Z" fill="#C48B65"/>
<path d="M84.639 23.1825L121.548 31.585" stroke="#AC7856" stroke-width="0.122635" stroke-linecap="round" stroke-linejoin="round"/>
<path d="M81.8123 23.1825L44.965 31.5668" stroke="#AC7856" stroke-width="0.122635" stroke-linecap="round" stroke-linejoin="round"/>
<path fill-rule="evenodd" clip-rule="evenodd" d="M45.8475 31.3668V38.122C45.8475 38.1749 45.8904 38.2178 45.9433 38.2178C45.9962 38.2178 46.039 38.1749 46.039 38.122V31.3235L45.8475 31.3668ZM47.8097 30.9235V38.122C47.8097 38.1749 47.8525 38.2178 47.9054 38.2178C47.9583 38.2178 48.0012 38.1749 48.0012 38.122V30.8802L47.8097 30.9235ZM49.7718 30.4802V38.122C49.7718 38.1749 49.8147 38.2178 49.8676 38.2178C49.9205 38.2178 49.9634 38.1749 49.9634 38.122V30.4369L49.7718 30.4802ZM51.734 30.0368V38.122C51.734 38.1749 51.7768 38.2178 51.8297 38.2178C51.8826 38.2178 51.9255 38.1749 51.9255 38.122V29.9936L51.734 30.0368ZM53.6961 29.5935V38.122C53.6961 38.1749 53.739 38.2178 53.7919 38.2178C53.8448 38.2178 53.8877 38.1749 53.8877 38.122V29.5502L53.6961 29.5935ZM55.6583 29.1502V38.122C55.6583 38.1749 55.7012 38.2178 55.7541 38.2178C55.807 38.2178 55.8498 38.1749 55.8498 38.122V29.1069L55.6583 29.1502ZM57.6204 28.7069V38.122C57.6204 38.1749 57.6633 38.2178 57.7162 38.2178C57.7691 38.2178 57.812 38.1749 57.812 38.122V28.6636L57.6204 28.7069ZM59.5826 28.2635V38.122C59.5826 38.1749 59.6255 38.2178 59.6784 38.2178C59.7313 38.2178 59.7741 38.1749 59.7741 38.122V28.2203L59.5826 28.2635ZM61.5448 27.8202V38.122C61.5448 38.1749 61.5876 38.2178 61.6405 38.2178C61.6934 38.2178 61.7363 38.1749 61.7363 38.122V27.7769L61.5448 27.8202ZM63.5069 27.3769V38.122C63.5069 38.1749 63.5498 38.2178 63.6027 38.2178C63.6556 38.2178 63.6985 38.1749 63.6985 38.122V27.3336L63.5069 27.3769ZM65.4691 26.9336V38.122C65.4691 38.1749 65.512 38.2178 65.5649 38.2178C65.6177 38.2178 65.6606 38.1749 65.6606 38.122V26.8903L65.4691 26.9336ZM67.4312 26.4902V38.122C67.4312 38.1749 67.4741 38.2178 67.527 38.2178C67.5799 38.2178 67.6228 38.1749 67.6228 38.122V26.4469L67.4312 26.4902ZM69.3934 26.0469V38.122C69.3934 38.1749 69.4363 38.2178 69.4892 38.2178C69.5421 38.2178 69.5849 38.1749 69.5849 38.122V26.0036L69.3934 26.0469ZM71.3556 25.6036V38.122C71.3556 38.1749 71.3984 38.2178 71.4513 38.2178C71.5042 38.2178 71.5471 38.1749 71.5471 38.122V25.5603L71.3556 25.6036ZM73.3177 25.1602V38.122C73.3177 38.1749 73.3606 38.2178 73.4135 38.2178C73.4664 38.2178 73.5093 38.1749 73.5093 38.122V25.117L73.3177 25.1602ZM75.2799 24.7169V38.122C75.2799 38.1749 75.3228 38.2178 75.3756 38.2178C75.4285 38.2178 75.4714 38.1749 75.4714 38.122V24.6736L75.2799 24.7169ZM77.242 24.2736V38.122C77.242 38.1749 77.2849 38.2178 77.3378 38.2178C77.3907 38.2178 77.4336 38.1749 77.4336 38.122V24.2303L77.242 24.2736ZM79.2042 23.8303V38.122C79.2042 38.1749 79.2471 38.2178 79.3 38.2178C79.3529 38.2178 79.3957 38.1749 79.3957 38.122V23.787L79.2042 23.8303ZM81.1663 23.3869V38.122C81.1663 38.1749 81.2092 38.2178 81.2621 38.2178C81.315 38.2178 81.3579 38.1749 81.3579 38.122V23.3437L81.1663 23.3869ZM83.1285 22.9436V38.122C83.1285 38.1749 83.1714 38.2178 83.2243 38.2178C83.2772 38.2178 83.3201 38.1749 83.3201 38.122V22.9003L83.1285 22.9436Z" fill="#AC7856"/>
<path fill-rule="evenodd" clip-rule="evenodd" d="M120.662 31.3668V38.122C120.662 38.1749 120.619 38.2178 120.567 38.2178C120.514 38.2178 120.471 38.1749 120.471 38.122V31.3235L120.662 31.3668ZM118.7 30.9235V38.122C118.7 38.1749 118.657 38.2178 118.604 38.2178C118.552 38.2178 118.509 38.1749 118.509 38.122V30.8802L118.7 30.9235ZM116.738 30.4802V38.122C116.738 38.1749 116.695 38.2178 116.642 38.2178C116.589 38.2178 116.546 38.1749 116.546 38.122V30.4369L116.738 30.4802ZM114.776 30.0368V38.122C114.776 38.1749 114.733 38.2178 114.68 38.2178C114.627 38.2178 114.584 38.1749 114.584 38.122V29.9936L114.776 30.0368ZM112.814 29.5935V38.122C112.814 38.1749 112.771 38.2178 112.718 38.2178C112.665 38.2178 112.622 38.1749 112.622 38.122V29.5502L112.814 29.5935ZM110.852 29.1502V38.122C110.852 38.1749 110.809 38.2178 110.756 38.2178C110.703 38.2178 110.66 38.1749 110.66 38.122V29.1069L110.852 29.1502ZM108.889 28.7069V38.122C108.889 38.1749 108.847 38.2178 108.794 38.2178C108.741 38.2178 108.698 38.1749 108.698 38.122V28.6636L108.889 28.7069ZM106.927 28.2635V38.122C106.927 38.1749 106.884 38.2178 106.831 38.2178C106.779 38.2178 106.736 38.1749 106.736 38.122V28.2203L106.927 28.2635ZM104.965 27.8202V38.122C104.965 38.1749 104.922 38.2178 104.869 38.2178C104.816 38.2178 104.774 38.1749 104.774 38.122V27.7769L104.965 27.8202ZM103.003 27.3769V38.122C103.003 38.1749 102.96 38.2178 102.907 38.2178C102.854 38.2178 102.811 38.1749 102.811 38.122V27.3336L103.003 27.3769ZM101.041 26.9336V38.122C101.041 38.1749 100.998 38.2178 100.945 38.2178C100.892 38.2178 100.849 38.1749 100.849 38.122V26.8903L101.041 26.9336ZM99.0786 26.4902V38.122C99.0786 38.1749 99.0357 38.2178 98.9828 38.2178C98.9299 38.2178 98.8871 38.1749 98.8871 38.122V26.4469L99.0786 26.4902ZM97.1164 26.0469V38.122C97.1164 38.1749 97.0736 38.2178 97.0207 38.2178C96.9678 38.2178 96.9249 38.1749 96.9249 38.122V26.0036L97.1164 26.0469ZM95.1543 25.6036V38.122C95.1543 38.1749 95.1114 38.2178 95.0585 38.2178C95.0056 38.2178 94.9627 38.1749 94.9627 38.122V25.5603L95.1543 25.6036ZM93.1921 25.1602V38.122C93.1921 38.1749 93.1492 38.2178 93.0963 38.2178C93.0435 38.2178 93.0006 38.1749 93.0006 38.122V25.117L93.1921 25.1602ZM91.23 24.7169V38.122C91.23 38.1749 91.1871 38.2178 91.1342 38.2178C91.0813 38.2178 91.0384 38.1749 91.0384 38.122V24.6736L91.23 24.7169ZM89.2678 24.2736V38.122C89.2678 38.1749 89.2249 38.2178 89.172 38.2178C89.1191 38.2178 89.0763 38.1749 89.0763 38.122V24.2303L89.2678 24.2736ZM87.3056 23.8303V38.122C87.3056 38.1749 87.2628 38.2178 87.2099 38.2178C87.157 38.2178 87.1141 38.1749 87.1141 38.122V23.787L87.3056 23.8303ZM85.3435 23.3869V38.122C85.3435 38.1749 85.3006 38.2178 85.2477 38.2178C85.1948 38.2178 85.1519 38.1749 85.1519 38.122V23.3437L85.3435 23.3869ZM83.3813 22.9436V38.122C83.3813 38.1749 83.3384 38.2178 83.2856 38.2178C83.2327 38.2178 83.1898 38.1749 83.1898 38.122V22.9003L83.3813 22.9436Z" fill="#AC7856"/>
<path d="M81.7527 19.8635C81.5074 20.6626 81.1395 20.8224 81.0168 21.4616H83.2243V12.1924C83.2243 12.1924 82.979 12.6718 82.979 12.8316V13.3111C82.979 13.3111 82.8564 13.4709 82.8564 13.6307V13.9503C82.8564 13.9503 82.7337 14.1102 82.7337 14.27V14.5896C82.7337 14.5896 82.4885 14.9092 82.4885 15.0691C82.4885 15.2289 82.6111 15.5485 82.6111 15.5485L82.4885 15.8681C82.4885 15.8681 82.1206 16.0279 82.1206 16.3476C82.1206 16.6672 82.2432 16.7311 82.2432 16.9868C82.2432 17.3065 81.9979 19.0644 81.7527 19.8635Z" fill="#FFE072"/>
<path d="M84.6958 19.8635C84.9411 20.6626 85.309 20.8224 85.4316 21.4616H83.2242V12.1924C83.2242 12.1924 83.4695 12.6718 83.4695 12.8316V13.3111C83.4695 13.3111 83.5921 13.4709 83.5921 13.6307V13.9503C83.5921 13.9503 83.7148 14.1102 83.7148 14.27V14.5896C83.7148 14.5896 83.96 14.9092 83.96 15.0691C83.96 15.2289 83.8374 15.5485 83.8374 15.5485L83.96 15.8681C83.96 15.8681 84.3279 16.0279 84.3279 16.3476C84.3279 16.6672 84.2053 16.7311 84.2053 16.9868C84.2053 17.3065 84.4506 19.0644 84.6958 19.8635Z" fill="#FFE072"/>
<path d="M80.7715 21.4617C80.7715 21.1908 80.9911 20.9711 81.262 20.9711H85.1863C85.4573 20.9711 85.6769 21.1908 85.6769 21.4617V21.4617H80.7715V21.4617Z" fill="#E4C75F"/>
<rect x="80.6703" y="21.1311" width="5.10784" height="1.99334" fill="#C48B65"/>
<path d="M80.7175 22.018L81.8755 23.1759" stroke="#AC7856" stroke-width="0.121311" stroke-linecap="round" stroke-linejoin="round"/>
<path d="M81.8855 23.1759L84.6936 23.1759" stroke="#AC7856" stroke-width="0.121311" stroke-linecap="round" stroke-linejoin="round"/>
<path d="M85.7782 22.0434L84.6391 23.1825" stroke="#AC7856" stroke-width="0.121311" stroke-linecap="round" stroke-linejoin="round"/>
</g>
<defs>
<clipPath id="clip0_195_1903">
<rect width="72.7867" height="5.42708" fill="white" transform="translate(46.8309 33.2308)"/>
</clipPath>
<clipPath id="clip1_195_1903">
<rect width="80.4485" height="24.4857" fill="white" transform="translate(43 9.31921)"/>
</clipPath>
</defs>
</svg>
